<?xml version="1.0" encoding="utf-8"?>
<svg xmlns="http://www.w3.org/2000/svg" xmlns:xlink="http://www.w3.org/1999/xlink" width="600" height="400" viewBox="0 0 2400 1600">
<defs>
  <clipPath id="clip520">
    <rect x="0" y="0" width="2400" height="1600"/>
  </clipPath>
</defs>
<path clip-path="url(#clip520)" d="M0 1600 L2400 1600 L2400 0 L0 0  Z" fill="#ffffff" fill-rule="evenodd" fill-opacity="1"/>
<defs>
  <clipPath id="clip521">
    <rect x="480" y="0" width="1681" height="1600"/>
  </clipPath>
</defs>
<path clip-path="url(#clip520)" d="M47.2441 1552.76 L1152.76 1552.76 L1152.76 123.472 L47.2441 123.472  Z" fill="#ffffff" fill-rule="evenodd" fill-opacity="1"/>
<defs>
  <clipPath id="clip522">
    <rect x="47" y="123" width="1107" height="1430"/>
  </clipPath>
</defs>
<path clip-path="url(#clip520)" d="M497.613 17.6457 Q488.701 17.6457 483.435 24.2892 Q478.21 30.9327 478.21 42.3968 Q478.21 53.8203 483.435 60.4638 Q488.701 67.1073 497.613 67.1073 Q506.525 67.1073 511.711 60.4638 Q516.936 53.8203 516.936 42.3968 Q516.936 30.9327 511.711 24.2892 Q506.525 17.6457 497.613 17.6457 M509.077 71.4823 L519.853 83.2704 L509.969 83.2704 L501.016 73.5887 Q499.679 73.6697 498.95 73.7103 Q498.262 73.7508 497.613 73.7508 Q484.853 73.7508 477.197 65.2439 Q469.581 56.6965 469.581 42.3968 Q469.581 28.0566 477.197 19.5497 Q484.853 11.0023 497.613 11.0023 Q510.333 11.0023 517.949 19.5497 Q525.565 28.0566 525.565 42.3968 Q525.565 52.9291 521.311 60.4233 Q517.098 67.9175 509.077 71.4823 Z" fill="#000000" fill-rule="nonzero" fill-opacity="1" /><path clip-path="url(#clip520)" d="M537.272 54.671 L537.272 27.2059 L544.725 27.2059 L544.725 54.3874 Q544.725 60.8284 547.237 64.0691 Q549.749 67.2693 554.772 67.2693 Q560.808 67.2693 564.291 63.421 Q567.816 59.5726 567.816 52.9291 L567.816 27.2059 L575.269 27.2059 L575.269 72.576 L567.816 72.576 L567.816 65.6084 Q565.101 69.7404 561.496 71.7658 Q557.931 73.7508 553.192 73.7508 Q545.374 73.7508 541.323 68.8897 Q537.272 64.0286 537.272 54.671 M556.027 26.1121 L556.027 26.1121 Z" fill="#000000" fill-rule="nonzero" fill-opacity="1" /><path clip-path="url(#clip520)" d="M629.43 48.0275 L629.43 51.6733 L595.159 51.6733 Q595.645 59.3701 599.777 63.421 Q603.95 67.4314 611.363 67.4314 Q615.657 67.4314 619.667 66.3781 Q623.718 65.3249 627.688 63.2184 L627.688 70.267 Q623.678 71.9684 619.465 72.8596 Q615.252 73.7508 610.917 73.7508 Q600.061 73.7508 593.701 67.4314 Q587.381 61.1119 587.381 50.3365 Q587.381 39.1965 593.377 32.6746 Q599.413 26.1121 609.621 26.1121 Q618.776 26.1121 624.083 32.0264 Q629.43 37.9003 629.43 48.0275 M621.976 45.84 Q621.895 39.7232 618.533 36.0774 Q615.211 32.4315 609.702 32.4315 Q603.464 32.4315 599.696 35.9558 Q595.969 39.4801 595.402 45.8805 L621.976 45.84 Z" fill="#000000" fill-rule="nonzero" fill-opacity="1" /><path clip-path="url(#clip520)" d="M680.471 48.0275 L680.471 51.6733 L646.201 51.6733 Q646.687 59.3701 650.819 63.421 Q654.991 67.4314 662.404 67.4314 Q666.698 67.4314 670.709 66.3781 Q674.759 65.3249 678.729 63.2184 L678.729 70.267 Q674.719 71.9684 670.506 72.8596 Q666.293 73.7508 661.959 73.7508 Q651.102 73.7508 644.742 67.4314 Q638.423 61.1119 638.423 50.3365 Q638.423 39.1965 644.418 32.6746 Q650.454 26.1121 660.662 26.1121 Q669.817 26.1121 675.124 32.0264 Q680.471 37.9003 680.471 48.0275 M673.018 45.84 Q672.937 39.7232 669.574 36.0774 Q666.253 32.4315 660.743 32.4315 Q654.505 32.4315 650.738 35.9558 Q647.011 39.4801 646.444 45.8805 L673.018 45.84 Z" fill="#000000" fill-rule="nonzero" fill-opacity="1" /><path clip-path="url(#clip520)" d="M730.419 45.1919 L730.419 72.576 L722.965 72.576 L722.965 45.4349 Q722.965 38.994 720.454 35.7938 Q717.942 32.5936 712.919 32.5936 Q706.883 32.5936 703.399 36.4419 Q699.916 40.2903 699.916 46.9338 L699.916 72.576 L692.421 72.576 L692.421 27.2059 L699.916 27.2059 L699.916 34.2544 Q702.589 30.163 706.194 28.1376 Q709.84 26.1121 714.58 26.1121 Q722.398 26.1121 726.408 30.9732 Q730.419 35.7938 730.419 45.1919 Z" fill="#000000" fill-rule="nonzero" fill-opacity="1" /><path clip-path="url(#clip522)" d="M78.5322 525.233 L287.119 525.233 L287.119 316.646 L78.5322 316.646 L78.5322 525.233  Z" fill="#a6cee2" fill-rule="evenodd" fill-opacity="1"/>
<polyline clip-path="url(#clip522)" style="stroke:#000000; stroke-linecap:round; stroke-linejoin:round; stroke-width:4; stroke-opacity:1; fill:none" points="78.5322,525.233 287.119,525.233 287.119,316.646 78.5322,316.646 78.5322,525.233 "/>
<path clip-path="url(#clip522)" d="M287.119 525.233 L495.706 525.233 L495.706 316.646 L287.119 316.646 L287.119 525.233  Z" fill="#a6cee2" fill-rule="evenodd" fill-opacity="1"/>
<polyline clip-path="url(#clip522)" style="stroke:#000000; stroke-linecap:round; stroke-linejoin:round; stroke-width:4; stroke-opacity:1; fill:none" points="287.119,525.233 495.706,525.233 495.706,316.646 287.119,316.646 287.119,525.233 "/>
<path clip-path="url(#clip522)" d="M495.706 525.233 L704.294 525.233 L704.294 316.646 L495.706 316.646 L495.706 525.233  Z" fill="#a6cee2" fill-rule="evenodd" fill-opacity="1"/>
<polyline clip-path="url(#clip522)" style="stroke:#000000; stroke-linecap:round; stroke-linejoin:round; stroke-width:4; stroke-opacity:1; fill:none" points="495.706,525.233 704.294,525.233 704.294,316.646 495.706,316.646 495.706,525.233 "/>
<path clip-path="url(#clip522)" d="M704.294 525.233 L912.881 525.233 L912.881 316.646 L704.294 316.646 L704.294 525.233  Z" fill="#a6cee2" fill-rule="evenodd" fill-opacity="1"/>
<polyline clip-path="url(#clip522)" style="stroke:#000000; stroke-linecap:round; stroke-linejoin:round; stroke-width:4; stroke-opacity:1; fill:none" points="704.294,525.233 912.881,525.233 912.881,316.646 704.294,316.646 704.294,525.233 "/>
<path clip-path="url(#clip522)" d="M912.881 525.233 L1121.47 525.233 L1121.47 316.646 L912.881 316.646 L912.881 525.233  Z" fill="#a6cee2" fill-rule="evenodd" fill-opacity="1"/>
<polyline clip-path="url(#clip522)" style="stroke:#000000; stroke-linecap:round; stroke-linejoin:round; stroke-width:4; stroke-opacity:1; fill:none" points="912.881,525.233 1121.47,525.233 1121.47,316.646 912.881,316.646 912.881,525.233 "/>
<path clip-path="url(#clip522)" d="M78.5322 733.82 L287.119 733.82 L287.119 525.233 L78.5322 525.233 L78.5322 733.82  Z" fill="#a6cee2" fill-rule="evenodd" fill-opacity="1"/>
<polyline clip-path="url(#clip522)" style="stroke:#000000; stroke-linecap:round; stroke-linejoin:round; stroke-width:4; stroke-opacity:1; fill:none" points="78.5322,733.82 287.119,733.82 287.119,525.233 78.5322,525.233 78.5322,733.82 "/>
<path clip-path="url(#clip522)" d="M912.881 733.82 L1121.47 733.82 L1121.47 525.233 L912.881 525.233 L912.881 733.82  Z" fill="#a6cee2" fill-rule="evenodd" fill-opacity="1"/>
<polyline clip-path="url(#clip522)" style="stroke:#000000; stroke-linecap:round; stroke-linejoin:round; stroke-width:4; stroke-opacity:1; fill:none" points="912.881,733.82 1121.47,733.82 1121.47,525.233 912.881,525.233 912.881,733.82 "/>
<path clip-path="url(#clip522)" d="M78.5322 942.408 L287.119 942.408 L287.119 733.82 L78.5322 733.82 L78.5322 942.408  Z" fill="#a6cee2" fill-rule="evenodd" fill-opacity="1"/>
<polyline clip-path="url(#clip522)" style="stroke:#000000; stroke-linecap:round; stroke-linejoin:round; stroke-width:4; stroke-opacity:1; fill:none" points="78.5322,942.408 287.119,942.408 287.119,733.82 78.5322,733.82 78.5322,942.408 "/>
<path clip-path="url(#clip522)" d="M912.881 942.408 L1121.47 942.408 L1121.47 733.82 L912.881 733.82 L912.881 942.408  Z" fill="#a6cee2" fill-rule="evenodd" fill-opacity="1"/>
<polyline clip-path="url(#clip522)" style="stroke:#000000; stroke-linecap:round; stroke-linejoin:round; stroke-width:4; stroke-opacity:1; fill:none" points="912.881,942.408 1121.47,942.408 1121.47,733.82 912.881,733.82 912.881,942.408 "/>
<path clip-path="url(#clip522)" d="M78.5322 1150.99 L287.119 1150.99 L287.119 942.408 L78.5322 942.408 L78.5322 1150.99  Z" fill="#a6cee2" fill-rule="evenodd" fill-opacity="1"/>
<polyline clip-path="url(#clip522)" style="stroke:#000000; stroke-linecap:round; stroke-linejoin:round; stroke-width:4; stroke-opacity:1; fill:none" points="78.5322,1150.99 287.119,1150.99 287.119,942.408 78.5322,942.408 78.5322,1150.99 "/>
<path clip-path="url(#clip522)" d="M912.881 1150.99 L1121.47 1150.99 L1121.47 942.408 L912.881 942.408 L912.881 1150.99  Z" fill="#a6cee2" fill-rule="evenodd" fill-opacity="1"/>
<polyline clip-path="url(#clip522)" style="stroke:#000000; stroke-linecap:round; stroke-linejoin:round; stroke-width:4; stroke-opacity:1; fill:none" points="912.881,1150.99 1121.47,1150.99 1121.47,942.408 912.881,942.408 912.881,1150.99 "/>
<path clip-path="url(#clip522)" d="M78.5322 1359.58 L287.119 1359.58 L287.119 1150.99 L78.5322 1150.99 L78.5322 1359.58  Z" fill="#a6cee2" fill-rule="evenodd" fill-opacity="1"/>
<polyline clip-path="url(#clip522)" style="stroke:#000000; stroke-linecap:round; stroke-linejoin:round; stroke-width:4; stroke-opacity:1; fill:none" points="78.5322,1359.58 287.119,1359.58 287.119,1150.99 78.5322,1150.99 78.5322,1359.58 "/>
<path clip-path="url(#clip522)" d="M287.119 1359.58 L495.706 1359.58 L495.706 1150.99 L287.119 1150.99 L287.119 1359.58  Z" fill="#a6cee2" fill-rule="evenodd" fill-opacity="1"/>
<polyline clip-path="url(#clip522)" style="stroke:#000000; stroke-linecap:round; stroke-linejoin:round; stroke-width:4; stroke-opacity:1; fill:none" points="287.119,1359.58 495.706,1359.58 495.706,1150.99 287.119,1150.99 287.119,1359.58 "/>
<path clip-path="url(#clip522)" d="M495.706 1359.58 L704.294 1359.58 L704.294 1150.99 L495.706 1150.99 L495.706 1359.58  Z" fill="#a6cee2" fill-rule="evenodd" fill-opacity="1"/>
<polyline clip-path="url(#clip522)" style="stroke:#000000; stroke-linecap:round; stroke-linejoin:round; stroke-width:4; stroke-opacity:1; fill:none" points="495.706,1359.58 704.294,1359.58 704.294,1150.99 495.706,1150.99 495.706,1359.58 "/>
<path clip-path="url(#clip522)" d="M704.294 1359.58 L912.881 1359.58 L912.881 1150.99 L704.294 1150.99 L704.294 1359.58  Z" fill="#a6cee2" fill-rule="evenodd" fill-opacity="1"/>
<polyline clip-path="url(#clip522)" style="stroke:#000000; stroke-linecap:round; stroke-linejoin:round; stroke-width:4; stroke-opacity:1; fill:none" points="704.294,1359.58 912.881,1359.58 912.881,1150.99 704.294,1150.99 704.294,1359.58 "/>
<path clip-path="url(#clip522)" d="M912.881 1359.58 L1121.47 1359.58 L1121.47 1150.99 L912.881 1150.99 L912.881 1359.58  Z" fill="#a6cee2" fill-rule="evenodd" fill-opacity="1"/>
<polyline clip-path="url(#clip522)" style="stroke:#000000; stroke-linecap:round; stroke-linejoin:round; stroke-width:4; stroke-opacity:1; fill:none" points="912.881,1359.58 1121.47,1359.58 1121.47,1150.99 912.881,1150.99 912.881,1359.58 "/>
<path clip-path="url(#clip522)" d="M287.119 733.82 L495.706 733.82 L495.706 525.233 L287.119 525.233 L287.119 733.82  Z" fill="#1f78b4" fill-rule="evenodd" fill-opacity="1"/>
<polyline clip-path="url(#clip522)" style="stroke:#000000; stroke-linecap:round; stroke-linejoin:round; stroke-width:4; stroke-opacity:1; fill:none" points="287.119,733.82 495.706,733.82 495.706,525.233 287.119,525.233 287.119,733.82 "/>
<path clip-path="url(#clip522)" d="M495.706 733.82 L704.294 733.82 L704.294 525.233 L495.706 525.233 L495.706 733.82  Z" fill="#1f78b4" fill-rule="evenodd" fill-opacity="1"/>
<polyline clip-path="url(#clip522)" style="stroke:#000000; stroke-linecap:round; stroke-linejoin:round; stroke-width:4; stroke-opacity:1; fill:none" points="495.706,733.82 704.294,733.82 704.294,525.233 495.706,525.233 495.706,733.82 "/>
<path clip-path="url(#clip522)" d="M704.294 733.82 L912.881 733.82 L912.881 525.233 L704.294 525.233 L704.294 733.82  Z" fill="#1f78b4" fill-rule="evenodd" fill-opacity="1"/>
<polyline clip-path="url(#clip522)" style="stroke:#000000; stroke-linecap:round; stroke-linejoin:round; stroke-width:4; stroke-opacity:1; fill:none" points="704.294,733.82 912.881,733.82 912.881,525.233 704.294,525.233 704.294,733.82 "/>
<path clip-path="url(#clip522)" d="M287.119 942.408 L495.706 942.408 L495.706 733.82 L287.119 733.82 L287.119 942.408  Z" fill="#1f78b4" fill-rule="evenodd" fill-opacity="1"/>
<polyline clip-path="url(#clip522)" style="stroke:#000000; stroke-linecap:round; stroke-linejoin:round; stroke-width:4; stroke-opacity:1; fill:none" points="287.119,942.408 495.706,942.408 495.706,733.82 287.119,733.82 287.119,942.408 "/>
<path clip-path="url(#clip522)" d="M704.294 942.408 L912.881 942.408 L912.881 733.82 L704.294 733.82 L704.294 942.408  Z" fill="#1f78b4" fill-rule="evenodd" fill-opacity="1"/>
<polyline clip-path="url(#clip522)" style="stroke:#000000; stroke-linecap:round; stroke-linejoin:round; stroke-width:4; stroke-opacity:1; fill:none" points="704.294,942.408 912.881,942.408 912.881,733.82 704.294,733.82 704.294,942.408 "/>
<path clip-path="url(#clip522)" d="M287.119 1150.99 L495.706 1150.99 L495.706 942.408 L287.119 942.408 L287.119 1150.99  Z" fill="#1f78b4" fill-rule="evenodd" fill-opacity="1"/>
<polyline clip-path="url(#clip522)" style="stroke:#000000; stroke-linecap:round; stroke-linejoin:round; stroke-width:4; stroke-opacity:1; fill:none" points="287.119,1150.99 495.706,1150.99 495.706,942.408 287.119,942.408 287.119,1150.99 "/>
<path clip-path="url(#clip522)" d="M495.706 1150.99 L704.294 1150.99 L704.294 942.408 L495.706 942.408 L495.706 1150.99  Z" fill="#1f78b4" fill-rule="evenodd" fill-opacity="1"/>
<polyline clip-path="url(#clip522)" style="stroke:#000000; stroke-linecap:round; stroke-linejoin:round; stroke-width:4; stroke-opacity:1; fill:none" points="495.706,1150.99 704.294,1150.99 704.294,942.408 495.706,942.408 495.706,1150.99 "/>
<path clip-path="url(#clip522)" d="M704.294 1150.99 L912.881 1150.99 L912.881 942.408 L704.294 942.408 L704.294 1150.99  Z" fill="#1f78b4" fill-rule="evenodd" fill-opacity="1"/>
<polyline clip-path="url(#clip522)" style="stroke:#000000; stroke-linecap:round; stroke-linejoin:round; stroke-width:4; stroke-opacity:1; fill:none" points="704.294,1150.99 912.881,1150.99 912.881,942.408 704.294,942.408 704.294,1150.99 "/>
<path clip-path="url(#clip522)" d="M495.706 942.408 L704.294 942.408 L704.294 733.82 L495.706 733.82 L495.706 942.408  Z" fill="#b1df89" fill-rule="evenodd" fill-opacity="1"/>
<polyline clip-path="url(#clip522)" style="stroke:#000000; stroke-linecap:round; stroke-linejoin:round; stroke-width:4; stroke-opacity:1; fill:none" points="495.706,942.408 704.294,942.408 704.294,733.82 495.706,733.82 495.706,942.408 "/>
<path clip-path="url(#clip520)" d="M1247.24 1552.76 L2352.76 1552.76 L2352.76 123.472 L1247.24 123.472  Z" fill="#ffffff" fill-rule="evenodd" fill-opacity="1"/>
<defs>
  <clipPath id="clip523">
    <rect x="1247" y="123" width="1107" height="1430"/>
  </clipPath>
</defs>
<path clip-path="url(#clip520)" d="M1731.13 44.2197 Q1733.77 45.1109 1736.24 48.0275 Q1738.75 50.9442 1741.26 56.0483 L1749.57 72.576 L1740.78 72.576 L1733.04 57.061 Q1730.04 50.9847 1727.21 48.9997 Q1724.41 47.0148 1719.55 47.0148 L1710.64 47.0148 L1710.64 72.576 L1702.45 72.576 L1702.45 12.096 L1720.93 12.096 Q1731.3 12.096 1736.4 16.4305 Q1741.5 20.7649 1741.5 29.5149 Q1741.5 35.2267 1738.83 38.994 Q1736.2 42.7613 1731.13 44.2197 M1710.64 18.8205 L1710.64 40.2903 L1720.93 40.2903 Q1726.84 40.2903 1729.84 37.5762 Q1732.88 34.8216 1732.88 29.5149 Q1732.88 24.2082 1729.84 21.5346 Q1726.84 18.8205 1720.93 18.8205 L1710.64 18.8205 Z" fill="#000000" fill-rule="nonzero" fill-opacity="1" /><path clip-path="url(#clip520)" d="M1773.63 32.4315 Q1767.63 32.4315 1764.15 37.1306 Q1760.67 41.7891 1760.67 49.9314 Q1760.67 58.0738 1764.11 62.7728 Q1767.59 67.4314 1773.63 67.4314 Q1779.58 67.4314 1783.07 62.7323 Q1786.55 58.0333 1786.55 49.9314 Q1786.55 41.8701 1783.07 37.1711 Q1779.58 32.4315 1773.63 32.4315 M1773.63 26.1121 Q1783.35 26.1121 1788.9 32.4315 Q1794.45 38.7509 1794.45 49.9314 Q1794.45 61.0714 1788.9 67.4314 Q1783.35 73.7508 1773.63 73.7508 Q1763.87 73.7508 1758.32 67.4314 Q1752.81 61.0714 1752.81 49.9314 Q1752.81 38.7509 1758.32 32.4315 Q1763.87 26.1121 1773.63 26.1121 Z" fill="#000000" fill-rule="nonzero" fill-opacity="1" /><path clip-path="url(#clip520)" d="M1824.39 32.4315 Q1818.39 32.4315 1814.91 37.1306 Q1811.42 41.7891 1811.42 49.9314 Q1811.42 58.0738 1814.87 62.7728 Q1818.35 67.4314 1824.39 67.4314 Q1830.34 67.4314 1833.83 62.7323 Q1837.31 58.0333 1837.31 49.9314 Q1837.31 41.8701 1833.83 37.1711 Q1830.34 32.4315 1824.39 32.4315 M1824.39 26.1121 Q1834.11 26.1121 1839.66 32.4315 Q1845.21 38.7509 1845.21 49.9314 Q1845.21 61.0714 1839.66 67.4314 Q1834.11 73.7508 1824.39 73.7508 Q1814.62 73.7508 1809.07 67.4314 Q1803.56 61.0714 1803.56 49.9314 Q1803.56 38.7509 1809.07 32.4315 Q1814.62 26.1121 1824.39 26.1121 Z" fill="#000000" fill-rule="nonzero" fill-opacity="1" /><path clip-path="url(#clip520)" d="M1857.28 9.54393 L1864.77 9.54393 L1864.77 46.7717 L1887.01 27.2059 L1896.53 27.2059 L1872.47 48.4326 L1897.55 72.576 L1887.82 72.576 L1864.77 50.4176 L1864.77 72.576 L1857.28 72.576 L1857.28 9.54393 Z" fill="#000000" fill-rule="nonzero" fill-opacity="1" /><path clip-path="url(#clip523)" d="M1278.53 525.233 L1487.12 525.233 L1487.12 316.646 L1278.53 316.646 L1278.53 525.233  Z" fill="#a6cee2" fill-rule="evenodd" fill-opacity="1"/>
<polyline clip-path="url(#clip523)" style="stroke:#000000; stroke-linecap:round; stroke-linejoin:round; stroke-width:4; stroke-opacity:1; fill:none" points="1278.53,525.233 1487.12,525.233 1487.12,316.646 1278.53,316.646 1278.53,525.233 "/>
<path clip-path="url(#clip523)" d="M1487.12 525.233 L1695.71 525.233 L1695.71 316.646 L1487.12 316.646 L1487.12 525.233  Z" fill="#a6cee2" fill-rule="evenodd" fill-opacity="1"/>
<polyline clip-path="url(#clip523)" style="stroke:#000000; stroke-linecap:round; stroke-linejoin:round; stroke-width:4; stroke-opacity:1; fill:none" points="1487.12,525.233 1695.71,525.233 1695.71,316.646 1487.12,316.646 1487.12,525.233 "/>
<path clip-path="url(#clip523)" d="M1695.71 525.233 L1904.29 525.233 L1904.29 316.646 L1695.71 316.646 L1695.71 525.233  Z" fill="#a6cee2" fill-rule="evenodd" fill-opacity="1"/>
<polyline clip-path="url(#clip523)" style="stroke:#000000; stroke-linecap:round; stroke-linejoin:round; stroke-width:4; stroke-opacity:1; fill:none" points="1695.71,525.233 1904.29,525.233 1904.29,316.646 1695.71,316.646 1695.71,525.233 "/>
<path clip-path="url(#clip523)" d="M1904.29 525.233 L2112.88 525.233 L2112.88 316.646 L1904.29 316.646 L1904.29 525.233  Z" fill="#a6cee2" fill-rule="evenodd" fill-opacity="1"/>
<polyline clip-path="url(#clip523)" style="stroke:#000000; stroke-linecap:round; stroke-linejoin:round; stroke-width:4; stroke-opacity:1; fill:none" points="1904.29,525.233 2112.88,525.233 2112.88,316.646 1904.29,316.646 1904.29,525.233 "/>
<path clip-path="url(#clip523)" d="M2112.88 525.233 L2321.47 525.233 L2321.47 316.646 L2112.88 316.646 L2112.88 525.233  Z" fill="#a6cee2" fill-rule="evenodd" fill-opacity="1"/>
<polyline clip-path="url(#clip523)" style="stroke:#000000; stroke-linecap:round; stroke-linejoin:round; stroke-width:4; stroke-opacity:1; fill:none" points="2112.88,525.233 2321.47,525.233 2321.47,316.646 2112.88,316.646 2112.88,525.233 "/>
<path clip-path="url(#clip523)" d="M1278.53 733.82 L1487.12 733.82 L1487.12 525.233 L1278.53 525.233 L1278.53 733.82  Z" fill="#a6cee2" fill-rule="evenodd" fill-opacity="1"/>
<polyline clip-path="url(#clip523)" style="stroke:#000000; stroke-linecap:round; stroke-linejoin:round; stroke-width:4; stroke-opacity:1; fill:none" points="1278.53,733.82 1487.12,733.82 1487.12,525.233 1278.53,525.233 1278.53,733.82 "/>
<path clip-path="url(#clip523)" d="M1487.12 733.82 L1695.71 733.82 L1695.71 525.233 L1487.12 525.233 L1487.12 733.82  Z" fill="#a6cee2" fill-rule="evenodd" fill-opacity="1"/>
<polyline clip-path="url(#clip523)" style="stroke:#000000; stroke-linecap:round; stroke-linejoin:round; stroke-width:4; stroke-opacity:1; fill:none" points="1487.12,733.82 1695.71,733.82 1695.71,525.233 1487.12,525.233 1487.12,733.82 "/>
<path clip-path="url(#clip523)" d="M1904.29 733.82 L2112.88 733.82 L2112.88 525.233 L1904.29 525.233 L1904.29 733.82  Z" fill="#a6cee2" fill-rule="evenodd" fill-opacity="1"/>
<polyline clip-path="url(#clip523)" style="stroke:#000000; stroke-linecap:round; stroke-linejoin:round; stroke-width:4; stroke-opacity:1; fill:none" points="1904.29,733.82 2112.88,733.82 2112.88,525.233 1904.29,525.233 1904.29,733.82 "/>
<path clip-path="url(#clip523)" d="M2112.88 733.82 L2321.47 733.82 L2321.47 525.233 L2112.88 525.233 L2112.88 733.82  Z" fill="#a6cee2" fill-rule="evenodd" fill-opacity="1"/>
<polyline clip-path="url(#clip523)" style="stroke:#000000; stroke-linecap:round; stroke-linejoin:round; stroke-width:4; stroke-opacity:1; fill:none" points="2112.88,733.82 2321.47,733.82 2321.47,525.233 2112.88,525.233 2112.88,733.82 "/>
<path clip-path="url(#clip523)" d="M1278.53 942.408 L1487.12 942.408 L1487.12 733.82 L1278.53 733.82 L1278.53 942.408  Z" fill="#a6cee2" fill-rule="evenodd" fill-opacity="1"/>
<polyline clip-path="url(#clip523)" style="stroke:#000000; stroke-linecap:round; stroke-linejoin:round; stroke-width:4; stroke-opacity:1; fill:none" points="1278.53,942.408 1487.12,942.408 1487.12,733.82 1278.53,733.82 1278.53,942.408 "/>
<path clip-path="url(#clip523)" d="M2112.88 942.408 L2321.47 942.408 L2321.47 733.82 L2112.88 733.82 L2112.88 942.408  Z" fill="#a6cee2" fill-rule="evenodd" fill-opacity="1"/>
<polyline clip-path="url(#clip523)" style="stroke:#000000; stroke-linecap:round; stroke-linejoin:round; stroke-width:4; stroke-opacity:1; fill:none" points="2112.88,942.408 2321.47,942.408 2321.47,733.82 2112.88,733.82 2112.88,942.408 "/>
<path clip-path="url(#clip523)" d="M1278.53 1150.99 L1487.12 1150.99 L1487.12 942.408 L1278.53 942.408 L1278.53 1150.99  Z" fill="#a6cee2" fill-rule="evenodd" fill-opacity="1"/>
<polyline clip-path="url(#clip523)" style="stroke:#000000; stroke-linecap:round; stroke-linejoin:round; stroke-width:4; stroke-opacity:1; fill:none" points="1278.53,1150.99 1487.12,1150.99 1487.12,942.408 1278.53,942.408 1278.53,1150.99 "/>
<path clip-path="url(#clip523)" d="M1487.12 1150.99 L1695.71 1150.99 L1695.71 942.408 L1487.12 942.408 L1487.12 1150.99  Z" fill="#a6cee2" fill-rule="evenodd" fill-opacity="1"/>
<polyline clip-path="url(#clip523)" style="stroke:#000000; stroke-linecap:round; stroke-linejoin:round; stroke-width:4; stroke-opacity:1; fill:none" points="1487.12,1150.99 1695.71,1150.99 1695.71,942.408 1487.12,942.408 1487.12,1150.99 "/>
<path clip-path="url(#clip523)" d="M1904.29 1150.99 L2112.88 1150.99 L2112.88 942.408 L1904.29 942.408 L1904.29 1150.99  Z" fill="#a6cee2" fill-rule="evenodd" fill-opacity="1"/>
<polyline clip-path="url(#clip523)" style="stroke:#000000; stroke-linecap:round; stroke-linejoin:round; stroke-width:4; stroke-opacity:1; fill:none" points="1904.29,1150.99 2112.88,1150.99 2112.88,942.408 1904.29,942.408 1904.29,1150.99 "/>
<path clip-path="url(#clip523)" d="M2112.88 1150.99 L2321.47 1150.99 L2321.47 942.408 L2112.88 942.408 L2112.88 1150.99  Z" fill="#a6cee2" fill-rule="evenodd" fill-opacity="1"/>
<polyline clip-path="url(#clip523)" style="stroke:#000000; stroke-linecap:round; stroke-linejoin:round; stroke-width:4; stroke-opacity:1; fill:none" points="2112.88,1150.99 2321.47,1150.99 2321.47,942.408 2112.88,942.408 2112.88,1150.99 "/>
<path clip-path="url(#clip523)" d="M1278.53 1359.58 L1487.12 1359.58 L1487.12 1150.99 L1278.53 1150.99 L1278.53 1359.58  Z" fill="#a6cee2" fill-rule="evenodd" fill-opacity="1"/>
<polyline clip-path="url(#clip523)" style="stroke:#000000; stroke-linecap:round; stroke-linejoin:round; stroke-width:4; stroke-opacity:1; fill:none" points="1278.53,1359.58 1487.12,1359.58 1487.12,1150.99 1278.53,1150.99 1278.53,1359.58 "/>
<path clip-path="url(#clip523)" d="M1487.12 1359.58 L1695.71 1359.58 L1695.71 1150.99 L1487.12 1150.99 L1487.12 1359.58  Z" fill="#a6cee2" fill-rule="evenodd" fill-opacity="1"/>
<polyline clip-path="url(#clip523)" style="stroke:#000000; stroke-linecap:round; stroke-linejoin:round; stroke-width:4; stroke-opacity:1; fill:none" points="1487.12,1359.58 1695.71,1359.58 1695.71,1150.99 1487.12,1150.99 1487.12,1359.58 "/>
<path clip-path="url(#clip523)" d="M1695.71 1359.58 L1904.29 1359.58 L1904.29 1150.99 L1695.71 1150.99 L1695.71 1359.58  Z" fill="#a6cee2" fill-rule="evenodd" fill-opacity="1"/>
<polyline clip-path="url(#clip523)" style="stroke:#000000; stroke-linecap:round; stroke-linejoin:round; stroke-width:4; stroke-opacity:1; fill:none" points="1695.71,1359.58 1904.29,1359.58 1904.29,1150.99 1695.71,1150.99 1695.71,1359.58 "/>
<path clip-path="url(#clip523)" d="M1904.29 1359.58 L2112.88 1359.58 L2112.88 1150.99 L1904.29 1150.99 L1904.29 1359.58  Z" fill="#a6cee2" fill-rule="evenodd" fill-opacity="1"/>
<polyline clip-path="url(#clip523)" style="stroke:#000000; stroke-linecap:round; stroke-linejoin:round; stroke-width:4; stroke-opacity:1; fill:none" points="1904.29,1359.58 2112.88,1359.58 2112.88,1150.99 1904.29,1150.99 1904.29,1359.58 "/>
<path clip-path="url(#clip523)" d="M2112.88 1359.58 L2321.47 1359.58 L2321.47 1150.99 L2112.88 1150.99 L2112.88 1359.58  Z" fill="#a6cee2" fill-rule="evenodd" fill-opacity="1"/>
<polyline clip-path="url(#clip523)" style="stroke:#000000; stroke-linecap:round; stroke-linejoin:round; stroke-width:4; stroke-opacity:1; fill:none" points="2112.88,1359.58 2321.47,1359.58 2321.47,1150.99 2112.88,1150.99 2112.88,1359.58 "/>
<path clip-path="url(#clip523)" d="M1695.71 733.82 L1904.29 733.82 L1904.29 525.233 L1695.71 525.233 L1695.71 733.82  Z" fill="#1f78b4" fill-rule="evenodd" fill-opacity="1"/>
<polyline clip-path="url(#clip523)" style="stroke:#000000; stroke-linecap:round; stroke-linejoin:round; stroke-width:4; stroke-opacity:1; fill:none" points="1695.71,733.82 1904.29,733.82 1904.29,525.233 1695.71,525.233 1695.71,733.82 "/>
<path clip-path="url(#clip523)" d="M1487.12 942.408 L1695.71 942.408 L1695.71 733.82 L1487.12 733.82 L1487.12 942.408  Z" fill="#1f78b4" fill-rule="evenodd" fill-opacity="1"/>
<polyline clip-path="url(#clip523)" style="stroke:#000000; stroke-linecap:round; stroke-linejoin:round; stroke-width:4; stroke-opacity:1; fill:none" points="1487.12,942.408 1695.71,942.408 1695.71,733.82 1487.12,733.82 1487.12,942.408 "/>
<path clip-path="url(#clip523)" d="M1904.29 942.408 L2112.88 942.408 L2112.88 733.82 L1904.29 733.82 L1904.29 942.408  Z" fill="#1f78b4" fill-rule="evenodd" fill-opacity="1"/>
<polyline clip-path="url(#clip523)" style="stroke:#000000; stroke-linecap:round; stroke-linejoin:round; stroke-width:4; stroke-opacity:1; fill:none" points="1904.29,942.408 2112.88,942.408 2112.88,733.82 1904.29,733.82 1904.29,942.408 "/>
<path clip-path="url(#clip523)" d="M1695.71 1150.99 L1904.29 1150.99 L1904.29 942.408 L1695.71 942.408 L1695.71 1150.99  Z" fill="#1f78b4" fill-rule="evenodd" fill-opacity="1"/>
<polyline clip-path="url(#clip523)" style="stroke:#000000; stroke-linecap:round; stroke-linejoin:round; stroke-width:4; stroke-opacity:1; fill:none" points="1695.71,1150.99 1904.29,1150.99 1904.29,942.408 1695.71,942.408 1695.71,1150.99 "/>
<path clip-path="url(#clip523)" d="M1695.71 942.408 L1904.29 942.408 L1904.29 733.82 L1695.71 733.82 L1695.71 942.408  Z" fill="#b1df89" fill-rule="evenodd" fill-opacity="1"/>
<polyline clip-path="url(#clip523)" style="stroke:#000000; stroke-linecap:round; stroke-linejoin:round; stroke-width:4; stroke-opacity:1; fill:none" points="1695.71,942.408 1904.29,942.408 1904.29,733.82 1695.71,733.82 1695.71,942.408 "/>
</svg>
