<?xml version="1.0" encoding="utf-8"?>
<svg xmlns="http://www.w3.org/2000/svg" xmlns:xlink="http://www.w3.org/1999/xlink" width="600" height="400" viewBox="0 0 2400 1600">
<defs>
  <clipPath id="clip100">
    <rect x="0" y="0" width="2400" height="1600"/>
  </clipPath>
</defs>
<path clip-path="url(#clip100)" d="M0 1600 L2400 1600 L2400 0 L0 0  Z" fill="#ffffff" fill-rule="evenodd" fill-opacity="1"/>
<defs>
  <clipPath id="clip101">
    <rect x="480" y="0" width="1681" height="1600"/>
  </clipPath>
</defs>
<path clip-path="url(#clip100)" d="M172.015 1486.45 L2352.76 1486.45 L2352.76 47.2441 L172.015 47.2441  Z" fill="#ffffff" fill-rule="evenodd" fill-opacity="1"/>
<defs>
  <clipPath id="clip102">
    <rect x="172" y="47" width="2182" height="1440"/>
  </clipPath>
</defs>
<polyline clip-path="url(#clip102)" style="stroke:#000000; stroke-linecap:round; stroke-linejoin:round; stroke-width:2; stroke-opacity:0.1; fill:none" points="392.624,1486.45 392.624,47.2441 "/>
<polyline clip-path="url(#clip102)" style="stroke:#000000; stroke-linecap:round; stroke-linejoin:round; stroke-width:2; stroke-opacity:0.1; fill:none" points="806.399,1486.45 806.399,47.2441 "/>
<polyline clip-path="url(#clip102)" style="stroke:#000000; stroke-linecap:round; stroke-linejoin:round; stroke-width:2; stroke-opacity:0.1; fill:none" points="1220.17,1486.45 1220.17,47.2441 "/>
<polyline clip-path="url(#clip102)" style="stroke:#000000; stroke-linecap:round; stroke-linejoin:round; stroke-width:2; stroke-opacity:0.1; fill:none" points="1633.95,1486.45 1633.95,47.2441 "/>
<polyline clip-path="url(#clip102)" style="stroke:#000000; stroke-linecap:round; stroke-linejoin:round; stroke-width:2; stroke-opacity:0.1; fill:none" points="2047.73,1486.45 2047.73,47.2441 "/>
<polyline clip-path="url(#clip100)" style="stroke:#000000; stroke-linecap:round; stroke-linejoin:round; stroke-width:4; stroke-opacity:1; fill:none" points="172.015,1486.45 2352.76,1486.45 "/>
<polyline clip-path="url(#clip100)" style="stroke:#000000; stroke-linecap:round; stroke-linejoin:round; stroke-width:4; stroke-opacity:1; fill:none" points="392.624,1486.45 392.624,1467.55 "/>
<polyline clip-path="url(#clip100)" style="stroke:#000000; stroke-linecap:round; stroke-linejoin:round; stroke-width:4; stroke-opacity:1; fill:none" points="806.399,1486.45 806.399,1467.55 "/>
<polyline clip-path="url(#clip100)" style="stroke:#000000; stroke-linecap:round; stroke-linejoin:round; stroke-width:4; stroke-opacity:1; fill:none" points="1220.17,1486.45 1220.17,1467.55 "/>
<polyline clip-path="url(#clip100)" style="stroke:#000000; stroke-linecap:round; stroke-linejoin:round; stroke-width:4; stroke-opacity:1; fill:none" points="1633.95,1486.45 1633.95,1467.55 "/>
<polyline clip-path="url(#clip100)" style="stroke:#000000; stroke-linecap:round; stroke-linejoin:round; stroke-width:4; stroke-opacity:1; fill:none" points="2047.73,1486.45 2047.73,1467.55 "/>
<path clip-path="url(#clip100)" d="M339.95 1532.02 L369.626 1532.02 L369.626 1535.95 L339.95 1535.95 L339.95 1532.02 Z" fill="#000000" fill-rule="nonzero" fill-opacity="1" /><path clip-path="url(#clip100)" d="M389.719 1517.37 Q386.108 1517.37 384.279 1520.93 Q382.473 1524.47 382.473 1531.6 Q382.473 1538.71 384.279 1542.27 Q386.108 1545.82 389.719 1545.82 Q393.353 1545.82 395.158 1542.27 Q396.987 1538.71 396.987 1531.6 Q396.987 1524.47 395.158 1520.93 Q393.353 1517.37 389.719 1517.37 M389.719 1513.66 Q395.529 1513.66 398.584 1518.27 Q401.663 1522.85 401.663 1531.6 Q401.663 1540.33 398.584 1544.94 Q395.529 1549.52 389.719 1549.52 Q383.908 1549.52 380.83 1544.94 Q377.774 1540.33 377.774 1531.6 Q377.774 1522.85 380.83 1518.27 Q383.908 1513.66 389.719 1513.66 Z" fill="#000000" fill-rule="nonzero" fill-opacity="1" /><path clip-path="url(#clip100)" d="M409.881 1542.97 L414.765 1542.97 L414.765 1548.85 L409.881 1548.85 L409.881 1542.97 Z" fill="#000000" fill-rule="nonzero" fill-opacity="1" /><path clip-path="url(#clip100)" d="M428.978 1544.91 L445.297 1544.91 L445.297 1548.85 L423.353 1548.85 L423.353 1544.91 Q426.015 1542.16 430.598 1537.53 Q435.205 1532.88 436.385 1531.53 Q438.63 1529.01 439.51 1527.27 Q440.413 1525.51 440.413 1523.82 Q440.413 1521.07 438.468 1519.33 Q436.547 1517.6 433.445 1517.6 Q431.246 1517.6 428.793 1518.36 Q426.362 1519.13 423.584 1520.68 L423.584 1515.95 Q426.408 1514.82 428.862 1514.24 Q431.316 1513.66 433.353 1513.66 Q438.723 1513.66 441.917 1516.35 Q445.112 1519.03 445.112 1523.52 Q445.112 1525.65 444.302 1527.57 Q443.515 1529.47 441.408 1532.07 Q440.829 1532.74 437.728 1535.95 Q434.626 1539.15 428.978 1544.91 Z" fill="#000000" fill-rule="nonzero" fill-opacity="1" /><path clip-path="url(#clip100)" d="M783.784 1517.37 Q780.173 1517.37 778.344 1520.93 Q776.538 1524.47 776.538 1531.6 Q776.538 1538.71 778.344 1542.27 Q780.173 1545.82 783.784 1545.82 Q787.418 1545.82 789.223 1542.27 Q791.052 1538.71 791.052 1531.6 Q791.052 1524.47 789.223 1520.93 Q787.418 1517.37 783.784 1517.37 M783.784 1513.66 Q789.594 1513.66 792.649 1518.27 Q795.728 1522.85 795.728 1531.6 Q795.728 1540.33 792.649 1544.94 Q789.594 1549.52 783.784 1549.52 Q777.973 1549.52 774.895 1544.94 Q771.839 1540.33 771.839 1531.6 Q771.839 1522.85 774.895 1518.27 Q777.973 1513.66 783.784 1513.66 Z" fill="#000000" fill-rule="nonzero" fill-opacity="1" /><path clip-path="url(#clip100)" d="M803.946 1542.97 L808.83 1542.97 L808.83 1548.85 L803.946 1548.85 L803.946 1542.97 Z" fill="#000000" fill-rule="nonzero" fill-opacity="1" /><path clip-path="url(#clip100)" d="M829.015 1517.37 Q825.404 1517.37 823.575 1520.93 Q821.77 1524.47 821.77 1531.6 Q821.77 1538.71 823.575 1542.27 Q825.404 1545.82 829.015 1545.82 Q832.649 1545.82 834.455 1542.27 Q836.283 1538.71 836.283 1531.6 Q836.283 1524.47 834.455 1520.93 Q832.649 1517.37 829.015 1517.37 M829.015 1513.66 Q834.825 1513.66 837.881 1518.27 Q840.959 1522.85 840.959 1531.6 Q840.959 1540.33 837.881 1544.94 Q834.825 1549.52 829.015 1549.52 Q823.205 1549.52 820.126 1544.94 Q817.071 1540.33 817.071 1531.6 Q817.071 1522.85 820.126 1518.27 Q823.205 1513.66 829.015 1513.66 Z" fill="#000000" fill-rule="nonzero" fill-opacity="1" /><path clip-path="url(#clip100)" d="M1198.36 1517.37 Q1194.75 1517.37 1192.92 1520.93 Q1191.11 1524.47 1191.11 1531.6 Q1191.11 1538.71 1192.92 1542.27 Q1194.75 1545.82 1198.36 1545.82 Q1201.99 1545.82 1203.8 1542.27 Q1205.63 1538.71 1205.63 1531.6 Q1205.63 1524.47 1203.8 1520.93 Q1201.99 1517.37 1198.36 1517.37 M1198.36 1513.66 Q1204.17 1513.66 1207.22 1518.27 Q1210.3 1522.85 1210.3 1531.6 Q1210.3 1540.33 1207.22 1544.94 Q1204.17 1549.52 1198.36 1549.52 Q1192.55 1549.52 1189.47 1544.94 Q1186.41 1540.33 1186.41 1531.6 Q1186.41 1522.85 1189.47 1518.27 Q1192.55 1513.66 1198.36 1513.66 Z" fill="#000000" fill-rule="nonzero" fill-opacity="1" /><path clip-path="url(#clip100)" d="M1218.52 1542.97 L1223.4 1542.97 L1223.4 1548.85 L1218.52 1548.85 L1218.52 1542.97 Z" fill="#000000" fill-rule="nonzero" fill-opacity="1" /><path clip-path="url(#clip100)" d="M1237.62 1544.91 L1253.94 1544.91 L1253.94 1548.85 L1231.99 1548.85 L1231.99 1544.91 Q1234.65 1542.16 1239.24 1537.53 Q1243.84 1532.88 1245.02 1531.53 Q1247.27 1529.01 1248.15 1527.27 Q1249.05 1525.51 1249.05 1523.82 Q1249.05 1521.07 1247.11 1519.33 Q1245.19 1517.6 1242.08 1517.6 Q1239.89 1517.6 1237.43 1518.36 Q1235 1519.13 1232.22 1520.68 L1232.22 1515.95 Q1235.05 1514.82 1237.5 1514.24 Q1239.95 1513.66 1241.99 1513.66 Q1247.36 1513.66 1250.56 1516.35 Q1253.75 1519.03 1253.75 1523.52 Q1253.75 1525.65 1252.94 1527.57 Q1252.15 1529.47 1250.05 1532.07 Q1249.47 1532.74 1246.37 1535.95 Q1243.26 1539.15 1237.62 1544.91 Z" fill="#000000" fill-rule="nonzero" fill-opacity="1" /><path clip-path="url(#clip100)" d="M1611.09 1517.37 Q1607.48 1517.37 1605.65 1520.93 Q1603.85 1524.47 1603.85 1531.6 Q1603.85 1538.71 1605.65 1542.27 Q1607.48 1545.82 1611.09 1545.82 Q1614.73 1545.82 1616.53 1542.27 Q1618.36 1538.71 1618.36 1531.6 Q1618.36 1524.47 1616.53 1520.93 Q1614.73 1517.37 1611.09 1517.37 M1611.09 1513.66 Q1616.9 1513.66 1619.96 1518.27 Q1623.04 1522.85 1623.04 1531.6 Q1623.04 1540.33 1619.96 1544.94 Q1616.9 1549.52 1611.09 1549.52 Q1605.28 1549.52 1602.2 1544.94 Q1599.15 1540.33 1599.15 1531.6 Q1599.15 1522.85 1602.2 1518.27 Q1605.28 1513.66 1611.09 1513.66 Z" fill="#000000" fill-rule="nonzero" fill-opacity="1" /><path clip-path="url(#clip100)" d="M1631.25 1542.97 L1636.14 1542.97 L1636.14 1548.85 L1631.25 1548.85 L1631.25 1542.97 Z" fill="#000000" fill-rule="nonzero" fill-opacity="1" /><path clip-path="url(#clip100)" d="M1659.17 1518.36 L1647.36 1536.81 L1659.17 1536.81 L1659.17 1518.36 M1657.94 1514.29 L1663.82 1514.29 L1663.82 1536.81 L1668.75 1536.81 L1668.75 1540.7 L1663.82 1540.7 L1663.82 1548.85 L1659.17 1548.85 L1659.17 1540.7 L1643.57 1540.7 L1643.57 1536.19 L1657.94 1514.29 Z" fill="#000000" fill-rule="nonzero" fill-opacity="1" /><path clip-path="url(#clip100)" d="M2025.03 1517.37 Q2021.42 1517.37 2019.59 1520.93 Q2017.78 1524.47 2017.78 1531.6 Q2017.78 1538.71 2019.59 1542.27 Q2021.42 1545.82 2025.03 1545.82 Q2028.66 1545.82 2030.47 1542.27 Q2032.3 1538.71 2032.3 1531.6 Q2032.3 1524.47 2030.47 1520.93 Q2028.66 1517.37 2025.03 1517.37 M2025.03 1513.66 Q2030.84 1513.66 2033.89 1518.27 Q2036.97 1522.85 2036.97 1531.6 Q2036.97 1540.33 2033.89 1544.94 Q2030.84 1549.52 2025.03 1549.52 Q2019.22 1549.52 2016.14 1544.94 Q2013.08 1540.33 2013.08 1531.6 Q2013.08 1522.85 2016.14 1518.27 Q2019.22 1513.66 2025.03 1513.66 Z" fill="#000000" fill-rule="nonzero" fill-opacity="1" /><path clip-path="url(#clip100)" d="M2045.19 1542.97 L2050.08 1542.97 L2050.08 1548.85 L2045.19 1548.85 L2045.19 1542.97 Z" fill="#000000" fill-rule="nonzero" fill-opacity="1" /><path clip-path="url(#clip100)" d="M2070.84 1529.7 Q2067.69 1529.7 2065.84 1531.86 Q2064.01 1534.01 2064.01 1537.76 Q2064.01 1541.49 2065.84 1543.66 Q2067.69 1545.82 2070.84 1545.82 Q2073.99 1545.82 2075.82 1543.66 Q2077.67 1541.49 2077.67 1537.76 Q2077.67 1534.01 2075.82 1531.86 Q2073.99 1529.7 2070.84 1529.7 M2080.12 1515.05 L2080.12 1519.31 Q2078.36 1518.48 2076.56 1518.04 Q2074.77 1517.6 2073.02 1517.6 Q2068.39 1517.6 2065.93 1520.72 Q2063.5 1523.85 2063.15 1530.17 Q2064.52 1528.15 2066.58 1527.09 Q2068.64 1526 2071.12 1526 Q2076.33 1526 2079.33 1529.17 Q2082.37 1532.32 2082.37 1537.76 Q2082.37 1543.08 2079.22 1546.3 Q2076.07 1549.52 2070.84 1549.52 Q2064.84 1549.52 2061.67 1544.94 Q2058.5 1540.33 2058.5 1531.6 Q2058.5 1523.41 2062.39 1518.55 Q2066.28 1513.66 2072.83 1513.66 Q2074.59 1513.66 2076.37 1514.01 Q2078.18 1514.36 2080.12 1515.05 Z" fill="#000000" fill-rule="nonzero" fill-opacity="1" /><polyline clip-path="url(#clip102)" style="stroke:#000000; stroke-linecap:round; stroke-linejoin:round; stroke-width:2; stroke-opacity:0.1; fill:none" points="172.015,1486.45 2352.76,1486.45 "/>
<polyline clip-path="url(#clip102)" style="stroke:#000000; stroke-linecap:round; stroke-linejoin:round; stroke-width:2; stroke-opacity:0.1; fill:none" points="172.015,1239.16 2352.76,1239.16 "/>
<polyline clip-path="url(#clip102)" style="stroke:#000000; stroke-linecap:round; stroke-linejoin:round; stroke-width:2; stroke-opacity:0.1; fill:none" points="172.015,991.876 2352.76,991.876 "/>
<polyline clip-path="url(#clip102)" style="stroke:#000000; stroke-linecap:round; stroke-linejoin:round; stroke-width:2; stroke-opacity:0.1; fill:none" points="172.015,744.59 2352.76,744.59 "/>
<polyline clip-path="url(#clip102)" style="stroke:#000000; stroke-linecap:round; stroke-linejoin:round; stroke-width:2; stroke-opacity:0.1; fill:none" points="172.015,497.304 2352.76,497.304 "/>
<polyline clip-path="url(#clip102)" style="stroke:#000000; stroke-linecap:round; stroke-linejoin:round; stroke-width:2; stroke-opacity:0.1; fill:none" points="172.015,250.019 2352.76,250.019 "/>
<polyline clip-path="url(#clip100)" style="stroke:#000000; stroke-linecap:round; stroke-linejoin:round; stroke-width:4; stroke-opacity:1; fill:none" points="172.015,1486.45 172.015,47.2441 "/>
<polyline clip-path="url(#clip100)" style="stroke:#000000; stroke-linecap:round; stroke-linejoin:round; stroke-width:4; stroke-opacity:1; fill:none" points="172.015,1486.45 190.912,1486.45 "/>
<polyline clip-path="url(#clip100)" style="stroke:#000000; stroke-linecap:round; stroke-linejoin:round; stroke-width:4; stroke-opacity:1; fill:none" points="172.015,1239.16 190.912,1239.16 "/>
<polyline clip-path="url(#clip100)" style="stroke:#000000; stroke-linecap:round; stroke-linejoin:round; stroke-width:4; stroke-opacity:1; fill:none" points="172.015,991.876 190.912,991.876 "/>
<polyline clip-path="url(#clip100)" style="stroke:#000000; stroke-linecap:round; stroke-linejoin:round; stroke-width:4; stroke-opacity:1; fill:none" points="172.015,744.59 190.912,744.59 "/>
<polyline clip-path="url(#clip100)" style="stroke:#000000; stroke-linecap:round; stroke-linejoin:round; stroke-width:4; stroke-opacity:1; fill:none" points="172.015,497.304 190.912,497.304 "/>
<polyline clip-path="url(#clip100)" style="stroke:#000000; stroke-linecap:round; stroke-linejoin:round; stroke-width:4; stroke-opacity:1; fill:none" points="172.015,250.019 190.912,250.019 "/>
<path clip-path="url(#clip100)" d="M124.07 1472.25 Q120.459 1472.25 118.631 1475.81 Q116.825 1479.35 116.825 1486.48 Q116.825 1493.59 118.631 1497.15 Q120.459 1500.7 124.07 1500.7 Q127.705 1500.7 129.51 1497.15 Q131.339 1493.59 131.339 1486.48 Q131.339 1479.35 129.51 1475.81 Q127.705 1472.25 124.07 1472.25 M124.07 1468.54 Q129.881 1468.54 132.936 1473.15 Q136.015 1477.73 136.015 1486.48 Q136.015 1495.21 132.936 1499.82 Q129.881 1504.4 124.07 1504.4 Q118.26 1504.4 115.182 1499.82 Q112.126 1495.21 112.126 1486.48 Q112.126 1477.73 115.182 1473.15 Q118.26 1468.54 124.07 1468.54 Z" fill="#000000" fill-rule="nonzero" fill-opacity="1" /><path clip-path="url(#clip100)" d="M54.5569 1252.51 L62.1958 1252.51 L62.1958 1226.14 L53.8856 1227.81 L53.8856 1223.55 L62.1495 1221.88 L66.8254 1221.88 L66.8254 1252.51 L74.4642 1252.51 L74.4642 1256.44 L54.5569 1256.44 L54.5569 1252.51 Z" fill="#000000" fill-rule="nonzero" fill-opacity="1" /><path clip-path="url(#clip100)" d="M93.9086 1224.96 Q90.2975 1224.96 88.4688 1228.53 Q86.6632 1232.07 86.6632 1239.2 Q86.6632 1246.3 88.4688 1249.87 Q90.2975 1253.41 93.9086 1253.41 Q97.5428 1253.41 99.3483 1249.87 Q101.177 1246.3 101.177 1239.2 Q101.177 1232.07 99.3483 1228.53 Q97.5428 1224.96 93.9086 1224.96 M93.9086 1221.26 Q99.7187 1221.26 102.774 1225.86 Q105.853 1230.45 105.853 1239.2 Q105.853 1247.92 102.774 1252.53 Q99.7187 1257.11 93.9086 1257.11 Q88.0984 1257.11 85.0197 1252.53 Q81.9642 1247.92 81.9642 1239.2 Q81.9642 1230.45 85.0197 1225.86 Q88.0984 1221.26 93.9086 1221.26 Z" fill="#000000" fill-rule="nonzero" fill-opacity="1" /><path clip-path="url(#clip100)" d="M124.07 1224.96 Q120.459 1224.96 118.631 1228.53 Q116.825 1232.07 116.825 1239.2 Q116.825 1246.3 118.631 1249.87 Q120.459 1253.41 124.07 1253.41 Q127.705 1253.41 129.51 1249.87 Q131.339 1246.3 131.339 1239.2 Q131.339 1232.07 129.51 1228.53 Q127.705 1224.96 124.07 1224.96 M124.07 1221.26 Q129.881 1221.26 132.936 1225.86 Q136.015 1230.45 136.015 1239.2 Q136.015 1247.92 132.936 1252.53 Q129.881 1257.11 124.07 1257.11 Q118.26 1257.11 115.182 1252.53 Q112.126 1247.92 112.126 1239.2 Q112.126 1230.45 115.182 1225.86 Q118.26 1221.26 124.07 1221.26 Z" fill="#000000" fill-rule="nonzero" fill-opacity="1" /><path clip-path="url(#clip100)" d="M57.7745 1005.22 L74.0939 1005.22 L74.0939 1009.16 L52.1495 1009.16 L52.1495 1005.22 Q54.8115 1002.47 59.3949 997.837 Q64.0013 993.184 65.1819 991.841 Q67.4272 989.318 68.3068 987.582 Q69.2096 985.823 69.2096 984.133 Q69.2096 981.378 67.2652 979.642 Q65.3439 977.906 62.2421 977.906 Q60.043 977.906 57.5893 978.67 Q55.1588 979.434 52.381 980.985 L52.381 976.263 Q55.2051 975.129 57.6588 974.55 Q60.1124 973.971 62.1495 973.971 Q67.5198 973.971 70.7142 976.656 Q73.9087 979.341 73.9087 983.832 Q73.9087 985.962 73.0985 987.883 Q72.3115 989.781 70.205 992.374 Q69.6263 993.045 66.5245 996.263 Q63.4226 999.457 57.7745 1005.22 Z" fill="#000000" fill-rule="nonzero" fill-opacity="1" /><path clip-path="url(#clip100)" d="M93.9086 977.675 Q90.2975 977.675 88.4688 981.24 Q86.6632 984.781 86.6632 991.911 Q86.6632 999.017 88.4688 1002.58 Q90.2975 1006.12 93.9086 1006.12 Q97.5428 1006.12 99.3483 1002.58 Q101.177 999.017 101.177 991.911 Q101.177 984.781 99.3483 981.24 Q97.5428 977.675 93.9086 977.675 M93.9086 973.971 Q99.7187 973.971 102.774 978.578 Q105.853 983.161 105.853 991.911 Q105.853 1000.64 102.774 1005.24 Q99.7187 1009.83 93.9086 1009.83 Q88.0984 1009.83 85.0197 1005.24 Q81.9642 1000.64 81.9642 991.911 Q81.9642 983.161 85.0197 978.578 Q88.0984 973.971 93.9086 973.971 Z" fill="#000000" fill-rule="nonzero" fill-opacity="1" /><path clip-path="url(#clip100)" d="M124.07 977.675 Q120.459 977.675 118.631 981.24 Q116.825 984.781 116.825 991.911 Q116.825 999.017 118.631 1002.58 Q120.459 1006.12 124.07 1006.12 Q127.705 1006.12 129.51 1002.58 Q131.339 999.017 131.339 991.911 Q131.339 984.781 129.51 981.24 Q127.705 977.675 124.07 977.675 M124.07 973.971 Q129.881 973.971 132.936 978.578 Q136.015 983.161 136.015 991.911 Q136.015 1000.64 132.936 1005.24 Q129.881 1009.83 124.07 1009.83 Q118.26 1009.83 115.182 1005.24 Q112.126 1000.64 112.126 991.911 Q112.126 983.161 115.182 978.578 Q118.26 973.971 124.07 973.971 Z" fill="#000000" fill-rule="nonzero" fill-opacity="1" /><path clip-path="url(#clip100)" d="M67.9133 743.236 Q71.2698 743.954 73.1448 746.222 Q75.0429 748.491 75.0429 751.824 Q75.0429 756.94 71.5244 759.741 Q68.0059 762.542 61.5245 762.542 Q59.3486 762.542 57.0338 762.102 Q54.7421 761.685 52.2884 760.829 L52.2884 756.315 Q54.2328 757.449 56.5477 758.028 Q58.8625 758.606 61.3856 758.606 Q65.7837 758.606 68.0754 756.87 Q70.3902 755.134 70.3902 751.824 Q70.3902 748.768 68.2374 747.056 Q66.1078 745.319 62.2884 745.319 L58.2606 745.319 L58.2606 741.477 L62.4735 741.477 Q65.9226 741.477 67.7513 740.111 Q69.58 738.722 69.58 736.13 Q69.58 733.468 67.6819 732.056 Q65.8069 730.62 62.2884 730.62 Q60.3671 730.62 58.168 731.037 Q55.969 731.454 53.3301 732.333 L53.3301 728.167 Q55.9921 727.426 58.3069 727.056 Q60.6449 726.685 62.705 726.685 Q68.0291 726.685 71.1309 729.116 Q74.2327 731.523 74.2327 735.644 Q74.2327 738.514 72.5892 740.505 Q70.9457 742.472 67.9133 743.236 Z" fill="#000000" fill-rule="nonzero" fill-opacity="1" /><path clip-path="url(#clip100)" d="M93.9086 730.389 Q90.2975 730.389 88.4688 733.954 Q86.6632 737.495 86.6632 744.625 Q86.6632 751.731 88.4688 755.296 Q90.2975 758.838 93.9086 758.838 Q97.5428 758.838 99.3483 755.296 Q101.177 751.731 101.177 744.625 Q101.177 737.495 99.3483 733.954 Q97.5428 730.389 93.9086 730.389 M93.9086 726.685 Q99.7187 726.685 102.774 731.292 Q105.853 735.875 105.853 744.625 Q105.853 753.352 102.774 757.958 Q99.7187 762.542 93.9086 762.542 Q88.0984 762.542 85.0197 757.958 Q81.9642 753.352 81.9642 744.625 Q81.9642 735.875 85.0197 731.292 Q88.0984 726.685 93.9086 726.685 Z" fill="#000000" fill-rule="nonzero" fill-opacity="1" /><path clip-path="url(#clip100)" d="M124.07 730.389 Q120.459 730.389 118.631 733.954 Q116.825 737.495 116.825 744.625 Q116.825 751.731 118.631 755.296 Q120.459 758.838 124.07 758.838 Q127.705 758.838 129.51 755.296 Q131.339 751.731 131.339 744.625 Q131.339 737.495 129.51 733.954 Q127.705 730.389 124.07 730.389 M124.07 726.685 Q129.881 726.685 132.936 731.292 Q136.015 735.875 136.015 744.625 Q136.015 753.352 132.936 757.958 Q129.881 762.542 124.07 762.542 Q118.26 762.542 115.182 757.958 Q112.126 753.352 112.126 744.625 Q112.126 735.875 115.182 731.292 Q118.26 726.685 124.07 726.685 Z" fill="#000000" fill-rule="nonzero" fill-opacity="1" /><path clip-path="url(#clip100)" d="M66.5939 484.098 L54.7884 502.547 L66.5939 502.547 L66.5939 484.098 M65.367 480.024 L71.2466 480.024 L71.2466 502.547 L76.1772 502.547 L76.1772 506.436 L71.2466 506.436 L71.2466 514.584 L66.5939 514.584 L66.5939 506.436 L50.9921 506.436 L50.9921 501.922 L65.367 480.024 Z" fill="#000000" fill-rule="nonzero" fill-opacity="1" /><path clip-path="url(#clip100)" d="M93.9086 483.103 Q90.2975 483.103 88.4688 486.668 Q86.6632 490.21 86.6632 497.339 Q86.6632 504.446 88.4688 508.01 Q90.2975 511.552 93.9086 511.552 Q97.5428 511.552 99.3483 508.01 Q101.177 504.446 101.177 497.339 Q101.177 490.21 99.3483 486.668 Q97.5428 483.103 93.9086 483.103 M93.9086 479.399 Q99.7187 479.399 102.774 484.006 Q105.853 488.589 105.853 497.339 Q105.853 506.066 102.774 510.672 Q99.7187 515.256 93.9086 515.256 Q88.0984 515.256 85.0197 510.672 Q81.9642 506.066 81.9642 497.339 Q81.9642 488.589 85.0197 484.006 Q88.0984 479.399 93.9086 479.399 Z" fill="#000000" fill-rule="nonzero" fill-opacity="1" /><path clip-path="url(#clip100)" d="M124.07 483.103 Q120.459 483.103 118.631 486.668 Q116.825 490.21 116.825 497.339 Q116.825 504.446 118.631 508.01 Q120.459 511.552 124.07 511.552 Q127.705 511.552 129.51 508.01 Q131.339 504.446 131.339 497.339 Q131.339 490.21 129.51 486.668 Q127.705 483.103 124.07 483.103 M124.07 479.399 Q129.881 479.399 132.936 484.006 Q136.015 488.589 136.015 497.339 Q136.015 506.066 132.936 510.672 Q129.881 515.256 124.07 515.256 Q118.26 515.256 115.182 510.672 Q112.126 506.066 112.126 497.339 Q112.126 488.589 115.182 484.006 Q118.26 479.399 124.07 479.399 Z" fill="#000000" fill-rule="nonzero" fill-opacity="1" /><path clip-path="url(#clip100)" d="M53.793 232.739 L72.1494 232.739 L72.1494 236.674 L58.0754 236.674 L58.0754 245.146 Q59.0939 244.799 60.1124 244.637 Q61.131 244.451 62.1495 244.451 Q67.9365 244.451 71.3161 247.623 Q74.6957 250.794 74.6957 256.211 Q74.6957 261.789 71.2235 264.891 Q67.7513 267.97 61.4319 267.97 Q59.256 267.97 56.9875 267.599 Q54.7421 267.229 52.3347 266.488 L52.3347 261.789 Q54.418 262.924 56.6402 263.479 Q58.8625 264.035 61.3393 264.035 Q65.3439 264.035 67.6819 261.928 Q70.0198 259.822 70.0198 256.211 Q70.0198 252.6 67.6819 250.493 Q65.3439 248.387 61.3393 248.387 Q59.4643 248.387 57.5893 248.803 Q55.7375 249.22 53.793 250.1 L53.793 232.739 Z" fill="#000000" fill-rule="nonzero" fill-opacity="1" /><path clip-path="url(#clip100)" d="M93.9086 235.817 Q90.2975 235.817 88.4688 239.382 Q86.6632 242.924 86.6632 250.053 Q86.6632 257.16 88.4688 260.724 Q90.2975 264.266 93.9086 264.266 Q97.5428 264.266 99.3483 260.724 Q101.177 257.16 101.177 250.053 Q101.177 242.924 99.3483 239.382 Q97.5428 235.817 93.9086 235.817 M93.9086 232.114 Q99.7187 232.114 102.774 236.72 Q105.853 241.303 105.853 250.053 Q105.853 258.78 102.774 263.386 Q99.7187 267.97 93.9086 267.97 Q88.0984 267.97 85.0197 263.386 Q81.9642 258.78 81.9642 250.053 Q81.9642 241.303 85.0197 236.72 Q88.0984 232.114 93.9086 232.114 Z" fill="#000000" fill-rule="nonzero" fill-opacity="1" /><path clip-path="url(#clip100)" d="M124.07 235.817 Q120.459 235.817 118.631 239.382 Q116.825 242.924 116.825 250.053 Q116.825 257.16 118.631 260.724 Q120.459 264.266 124.07 264.266 Q127.705 264.266 129.51 260.724 Q131.339 257.16 131.339 250.053 Q131.339 242.924 129.51 239.382 Q127.705 235.817 124.07 235.817 M124.07 232.114 Q129.881 232.114 132.936 236.72 Q136.015 241.303 136.015 250.053 Q136.015 258.78 132.936 263.386 Q129.881 267.97 124.07 267.97 Q118.26 267.97 115.182 263.386 Q112.126 258.78 112.126 250.053 Q112.126 241.303 115.182 236.72 Q118.26 232.114 124.07 232.114 Z" fill="#000000" fill-rule="nonzero" fill-opacity="1" /><path clip-path="url(#clip102)" d="M268.491 1483.98 L268.491 1486.45 L289.18 1486.45 L289.18 1483.98 L268.491 1483.98 L268.491 1483.98  Z" fill="#009af9" fill-rule="evenodd" fill-opacity="1"/>
<polyline clip-path="url(#clip102)" style="stroke:#000000; stroke-linecap:round; stroke-linejoin:round; stroke-width:4; stroke-opacity:1; fill:none" points="268.491,1483.98 268.491,1486.45 289.18,1486.45 289.18,1483.98 268.491,1483.98 "/>
<path clip-path="url(#clip102)" d="M289.18 1483.98 L289.18 1486.45 L309.869 1486.45 L309.869 1483.98 L289.18 1483.98 L289.18 1483.98  Z" fill="#009af9" fill-rule="evenodd" fill-opacity="1"/>
<polyline clip-path="url(#clip102)" style="stroke:#000000; stroke-linecap:round; stroke-linejoin:round; stroke-width:4; stroke-opacity:1; fill:none" points="289.18,1483.98 289.18,1486.45 309.869,1486.45 309.869,1483.98 289.18,1483.98 "/>
<path clip-path="url(#clip102)" d="M309.869 1476.56 L309.869 1486.45 L330.557 1486.45 L330.557 1476.56 L309.869 1476.56 L309.869 1476.56  Z" fill="#009af9" fill-rule="evenodd" fill-opacity="1"/>
<polyline clip-path="url(#clip102)" style="stroke:#000000; stroke-linecap:round; stroke-linejoin:round; stroke-width:4; stroke-opacity:1; fill:none" points="309.869,1476.56 309.869,1486.45 330.557,1486.45 330.557,1476.56 309.869,1476.56 "/>
<path clip-path="url(#clip102)" d="M330.557 1483.98 L330.557 1486.45 L351.246 1486.45 L351.246 1483.98 L330.557 1483.98 L330.557 1483.98  Z" fill="#009af9" fill-rule="evenodd" fill-opacity="1"/>
<polyline clip-path="url(#clip102)" style="stroke:#000000; stroke-linecap:round; stroke-linejoin:round; stroke-width:4; stroke-opacity:1; fill:none" points="330.557,1483.98 330.557,1486.45 351.246,1486.45 351.246,1483.98 330.557,1483.98 "/>
<path clip-path="url(#clip102)" d="M351.246 1471.61 L351.246 1486.45 L371.935 1486.45 L371.935 1471.61 L351.246 1471.61 L351.246 1471.61  Z" fill="#009af9" fill-rule="evenodd" fill-opacity="1"/>
<polyline clip-path="url(#clip102)" style="stroke:#000000; stroke-linecap:round; stroke-linejoin:round; stroke-width:4; stroke-opacity:1; fill:none" points="351.246,1471.61 351.246,1486.45 371.935,1486.45 371.935,1471.61 351.246,1471.61 "/>
<path clip-path="url(#clip102)" d="M371.935 1474.08 L371.935 1486.45 L392.624 1486.45 L392.624 1474.08 L371.935 1474.08 L371.935 1474.08  Z" fill="#009af9" fill-rule="evenodd" fill-opacity="1"/>
<polyline clip-path="url(#clip102)" style="stroke:#000000; stroke-linecap:round; stroke-linejoin:round; stroke-width:4; stroke-opacity:1; fill:none" points="371.935,1474.08 371.935,1486.45 392.624,1486.45 392.624,1474.08 371.935,1474.08 "/>
<path clip-path="url(#clip102)" d="M392.624 1451.83 L392.624 1486.45 L413.312 1486.45 L413.312 1451.83 L392.624 1451.83 L392.624 1451.83  Z" fill="#009af9" fill-rule="evenodd" fill-opacity="1"/>
<polyline clip-path="url(#clip102)" style="stroke:#000000; stroke-linecap:round; stroke-linejoin:round; stroke-width:4; stroke-opacity:1; fill:none" points="392.624,1451.83 392.624,1486.45 413.312,1486.45 413.312,1451.83 392.624,1451.83 "/>
<path clip-path="url(#clip102)" d="M413.312 1439.46 L413.312 1486.45 L434.001 1486.45 L434.001 1439.46 L413.312 1439.46 L413.312 1439.46  Z" fill="#009af9" fill-rule="evenodd" fill-opacity="1"/>
<polyline clip-path="url(#clip102)" style="stroke:#000000; stroke-linecap:round; stroke-linejoin:round; stroke-width:4; stroke-opacity:1; fill:none" points="413.312,1439.46 413.312,1486.45 434.001,1486.45 434.001,1439.46 413.312,1439.46 "/>
<path clip-path="url(#clip102)" d="M434.001 1402.37 L434.001 1486.45 L454.69 1486.45 L454.69 1402.37 L434.001 1402.37 L434.001 1402.37  Z" fill="#009af9" fill-rule="evenodd" fill-opacity="1"/>
<polyline clip-path="url(#clip102)" style="stroke:#000000; stroke-linecap:round; stroke-linejoin:round; stroke-width:4; stroke-opacity:1; fill:none" points="434.001,1402.37 434.001,1486.45 454.69,1486.45 454.69,1402.37 434.001,1402.37 "/>
<path clip-path="url(#clip102)" d="M454.69 1360.33 L454.69 1486.45 L475.379 1486.45 L475.379 1360.33 L454.69 1360.33 L454.69 1360.33  Z" fill="#009af9" fill-rule="evenodd" fill-opacity="1"/>
<polyline clip-path="url(#clip102)" style="stroke:#000000; stroke-linecap:round; stroke-linejoin:round; stroke-width:4; stroke-opacity:1; fill:none" points="454.69,1360.33 454.69,1486.45 475.379,1486.45 475.379,1360.33 454.69,1360.33 "/>
<path clip-path="url(#clip102)" d="M475.379 1347.97 L475.379 1486.45 L496.068 1486.45 L496.068 1347.97 L475.379 1347.97 L475.379 1347.97  Z" fill="#009af9" fill-rule="evenodd" fill-opacity="1"/>
<polyline clip-path="url(#clip102)" style="stroke:#000000; stroke-linecap:round; stroke-linejoin:round; stroke-width:4; stroke-opacity:1; fill:none" points="475.379,1347.97 475.379,1486.45 496.068,1486.45 496.068,1347.97 475.379,1347.97 "/>
<path clip-path="url(#clip102)" d="M496.068 1291.09 L496.068 1486.45 L516.756 1486.45 L516.756 1291.09 L496.068 1291.09 L496.068 1291.09  Z" fill="#009af9" fill-rule="evenodd" fill-opacity="1"/>
<polyline clip-path="url(#clip102)" style="stroke:#000000; stroke-linecap:round; stroke-linejoin:round; stroke-width:4; stroke-opacity:1; fill:none" points="496.068,1291.09 496.068,1486.45 516.756,1486.45 516.756,1291.09 496.068,1291.09 "/>
<path clip-path="url(#clip102)" d="M516.756 1221.85 L516.756 1486.45 L537.445 1486.45 L537.445 1221.85 L516.756 1221.85 L516.756 1221.85  Z" fill="#009af9" fill-rule="evenodd" fill-opacity="1"/>
<polyline clip-path="url(#clip102)" style="stroke:#000000; stroke-linecap:round; stroke-linejoin:round; stroke-width:4; stroke-opacity:1; fill:none" points="516.756,1221.85 516.756,1486.45 537.445,1486.45 537.445,1221.85 516.756,1221.85 "/>
<path clip-path="url(#clip102)" d="M537.445 1026.5 L537.445 1486.45 L558.134 1486.45 L558.134 1026.5 L537.445 1026.5 L537.445 1026.5  Z" fill="#009af9" fill-rule="evenodd" fill-opacity="1"/>
<polyline clip-path="url(#clip102)" style="stroke:#000000; stroke-linecap:round; stroke-linejoin:round; stroke-width:4; stroke-opacity:1; fill:none" points="537.445,1026.5 537.445,1486.45 558.134,1486.45 558.134,1026.5 537.445,1026.5 "/>
<path clip-path="url(#clip102)" d="M558.134 962.202 L558.134 1486.45 L578.823 1486.45 L578.823 962.202 L558.134 962.202 L558.134 962.202  Z" fill="#009af9" fill-rule="evenodd" fill-opacity="1"/>
<polyline clip-path="url(#clip102)" style="stroke:#000000; stroke-linecap:round; stroke-linejoin:round; stroke-width:4; stroke-opacity:1; fill:none" points="558.134,962.202 558.134,1486.45 578.823,1486.45 578.823,962.202 558.134,962.202 "/>
<path clip-path="url(#clip102)" d="M578.823 816.303 L578.823 1486.45 L599.511 1486.45 L599.511 816.303 L578.823 816.303 L578.823 816.303  Z" fill="#009af9" fill-rule="evenodd" fill-opacity="1"/>
<polyline clip-path="url(#clip102)" style="stroke:#000000; stroke-linecap:round; stroke-linejoin:round; stroke-width:4; stroke-opacity:1; fill:none" points="578.823,816.303 578.823,1486.45 599.511,1486.45 599.511,816.303 578.823,816.303 "/>
<path clip-path="url(#clip102)" d="M599.511 756.955 L599.511 1486.45 L620.2 1486.45 L620.2 756.955 L599.511 756.955 L599.511 756.955  Z" fill="#009af9" fill-rule="evenodd" fill-opacity="1"/>
<polyline clip-path="url(#clip102)" style="stroke:#000000; stroke-linecap:round; stroke-linejoin:round; stroke-width:4; stroke-opacity:1; fill:none" points="599.511,756.955 599.511,1486.45 620.2,1486.45 620.2,756.955 599.511,756.955 "/>
<path clip-path="url(#clip102)" d="M620.2 658.04 L620.2 1486.45 L640.889 1486.45 L640.889 658.04 L620.2 658.04 L620.2 658.04  Z" fill="#009af9" fill-rule="evenodd" fill-opacity="1"/>
<polyline clip-path="url(#clip102)" style="stroke:#000000; stroke-linecap:round; stroke-linejoin:round; stroke-width:4; stroke-opacity:1; fill:none" points="620.2,658.04 620.2,1486.45 640.889,1486.45 640.889,658.04 620.2,658.04 "/>
<path clip-path="url(#clip102)" d="M640.889 447.847 L640.889 1486.45 L661.578 1486.45 L661.578 447.847 L640.889 447.847 L640.889 447.847  Z" fill="#009af9" fill-rule="evenodd" fill-opacity="1"/>
<polyline clip-path="url(#clip102)" style="stroke:#000000; stroke-linecap:round; stroke-linejoin:round; stroke-width:4; stroke-opacity:1; fill:none" points="640.889,447.847 640.889,1486.45 661.578,1486.45 661.578,447.847 640.889,447.847 "/>
<path clip-path="url(#clip102)" d="M661.578 356.351 L661.578 1486.45 L682.267 1486.45 L682.267 356.351 L661.578 356.351 L661.578 356.351  Z" fill="#009af9" fill-rule="evenodd" fill-opacity="1"/>
<polyline clip-path="url(#clip102)" style="stroke:#000000; stroke-linecap:round; stroke-linejoin:round; stroke-width:4; stroke-opacity:1; fill:none" points="661.578,356.351 661.578,1486.45 682.267,1486.45 682.267,356.351 661.578,356.351 "/>
<path clip-path="url(#clip102)" d="M682.267 188.197 L682.267 1486.45 L702.955 1486.45 L702.955 188.197 L682.267 188.197 L682.267 188.197  Z" fill="#009af9" fill-rule="evenodd" fill-opacity="1"/>
<polyline clip-path="url(#clip102)" style="stroke:#000000; stroke-linecap:round; stroke-linejoin:round; stroke-width:4; stroke-opacity:1; fill:none" points="682.267,188.197 682.267,1486.45 702.955,1486.45 702.955,188.197 682.267,188.197 "/>
<path clip-path="url(#clip102)" d="M702.955 109.066 L702.955 1486.45 L723.644 1486.45 L723.644 109.066 L702.955 109.066 L702.955 109.066  Z" fill="#009af9" fill-rule="evenodd" fill-opacity="1"/>
<polyline clip-path="url(#clip102)" style="stroke:#000000; stroke-linecap:round; stroke-linejoin:round; stroke-width:4; stroke-opacity:1; fill:none" points="702.955,109.066 702.955,1486.45 723.644,1486.45 723.644,109.066 702.955,109.066 "/>
<path clip-path="url(#clip102)" d="M723.644 47.2441 L723.644 1486.45 L744.333 1486.45 L744.333 47.2441 L723.644 47.2441 L723.644 47.2441  Z" fill="#009af9" fill-rule="evenodd" fill-opacity="1"/>
<polyline clip-path="url(#clip102)" style="stroke:#000000; stroke-linecap:round; stroke-linejoin:round; stroke-width:4; stroke-opacity:1; fill:none" points="723.644,47.2441 723.644,1486.45 744.333,1486.45 744.333,47.2441 723.644,47.2441 "/>
<path clip-path="url(#clip102)" d="M744.333 116.484 L744.333 1486.45 L765.022 1486.45 L765.022 116.484 L744.333 116.484 L744.333 116.484  Z" fill="#009af9" fill-rule="evenodd" fill-opacity="1"/>
<polyline clip-path="url(#clip102)" style="stroke:#000000; stroke-linecap:round; stroke-linejoin:round; stroke-width:4; stroke-opacity:1; fill:none" points="744.333,116.484 744.333,1486.45 765.022,1486.45 765.022,116.484 744.333,116.484 "/>
<path clip-path="url(#clip102)" d="M765.022 173.36 L765.022 1486.45 L785.71 1486.45 L785.71 173.36 L765.022 173.36 L765.022 173.36  Z" fill="#009af9" fill-rule="evenodd" fill-opacity="1"/>
<polyline clip-path="url(#clip102)" style="stroke:#000000; stroke-linecap:round; stroke-linejoin:round; stroke-width:4; stroke-opacity:1; fill:none" points="765.022,173.36 765.022,1486.45 785.71,1486.45 785.71,173.36 765.022,173.36 "/>
<path clip-path="url(#clip102)" d="M785.71 94.2284 L785.71 1486.45 L806.399 1486.45 L806.399 94.2284 L785.71 94.2284 L785.71 94.2284  Z" fill="#009af9" fill-rule="evenodd" fill-opacity="1"/>
<polyline clip-path="url(#clip102)" style="stroke:#000000; stroke-linecap:round; stroke-linejoin:round; stroke-width:4; stroke-opacity:1; fill:none" points="785.71,94.2284 785.71,1486.45 806.399,1486.45 806.399,94.2284 785.71,94.2284 "/>
<path clip-path="url(#clip102)" d="M806.399 195.616 L806.399 1486.45 L827.088 1486.45 L827.088 195.616 L806.399 195.616 L806.399 195.616  Z" fill="#009af9" fill-rule="evenodd" fill-opacity="1"/>
<polyline clip-path="url(#clip102)" style="stroke:#000000; stroke-linecap:round; stroke-linejoin:round; stroke-width:4; stroke-opacity:1; fill:none" points="806.399,195.616 806.399,1486.45 827.088,1486.45 827.088,195.616 806.399,195.616 "/>
<path clip-path="url(#clip102)" d="M827.088 279.693 L827.088 1486.45 L847.777 1486.45 L847.777 279.693 L827.088 279.693 L827.088 279.693  Z" fill="#009af9" fill-rule="evenodd" fill-opacity="1"/>
<polyline clip-path="url(#clip102)" style="stroke:#000000; stroke-linecap:round; stroke-linejoin:round; stroke-width:4; stroke-opacity:1; fill:none" points="827.088,279.693 827.088,1486.45 847.777,1486.45 847.777,279.693 827.088,279.693 "/>
<path clip-path="url(#clip102)" d="M847.777 371.189 L847.777 1486.45 L868.466 1486.45 L868.466 371.189 L847.777 371.189 L847.777 371.189  Z" fill="#009af9" fill-rule="evenodd" fill-opacity="1"/>
<polyline clip-path="url(#clip102)" style="stroke:#000000; stroke-linecap:round; stroke-linejoin:round; stroke-width:4; stroke-opacity:1; fill:none" points="847.777,371.189 847.777,1486.45 868.466,1486.45 868.466,371.189 847.777,371.189 "/>
<path clip-path="url(#clip102)" d="M868.466 447.847 L868.466 1486.45 L889.154 1486.45 L889.154 447.847 L868.466 447.847 L868.466 447.847  Z" fill="#009af9" fill-rule="evenodd" fill-opacity="1"/>
<polyline clip-path="url(#clip102)" style="stroke:#000000; stroke-linecap:round; stroke-linejoin:round; stroke-width:4; stroke-opacity:1; fill:none" points="868.466,447.847 868.466,1486.45 889.154,1486.45 889.154,447.847 868.466,447.847 "/>
<path clip-path="url(#clip102)" d="M889.154 477.522 L889.154 1486.45 L909.843 1486.45 L909.843 477.522 L889.154 477.522 L889.154 477.522  Z" fill="#009af9" fill-rule="evenodd" fill-opacity="1"/>
<polyline clip-path="url(#clip102)" style="stroke:#000000; stroke-linecap:round; stroke-linejoin:round; stroke-width:4; stroke-opacity:1; fill:none" points="889.154,477.522 889.154,1486.45 909.843,1486.45 909.843,477.522 889.154,477.522 "/>
<path clip-path="url(#clip102)" d="M909.843 662.986 L909.843 1486.45 L930.532 1486.45 L930.532 662.986 L909.843 662.986 L909.843 662.986  Z" fill="#009af9" fill-rule="evenodd" fill-opacity="1"/>
<polyline clip-path="url(#clip102)" style="stroke:#000000; stroke-linecap:round; stroke-linejoin:round; stroke-width:4; stroke-opacity:1; fill:none" points="909.843,662.986 909.843,1486.45 930.532,1486.45 930.532,662.986 909.843,662.986 "/>
<path clip-path="url(#clip102)" d="M930.532 826.195 L930.532 1486.45 L951.221 1486.45 L951.221 826.195 L930.532 826.195 L930.532 826.195  Z" fill="#009af9" fill-rule="evenodd" fill-opacity="1"/>
<polyline clip-path="url(#clip102)" style="stroke:#000000; stroke-linecap:round; stroke-linejoin:round; stroke-width:4; stroke-opacity:1; fill:none" points="930.532,826.195 930.532,1486.45 951.221,1486.45 951.221,826.195 930.532,826.195 "/>
<path clip-path="url(#clip102)" d="M951.221 880.597 L951.221 1486.45 L971.909 1486.45 L971.909 880.597 L951.221 880.597 L951.221 880.597  Z" fill="#009af9" fill-rule="evenodd" fill-opacity="1"/>
<polyline clip-path="url(#clip102)" style="stroke:#000000; stroke-linecap:round; stroke-linejoin:round; stroke-width:4; stroke-opacity:1; fill:none" points="951.221,880.597 951.221,1486.45 971.909,1486.45 971.909,880.597 951.221,880.597 "/>
<path clip-path="url(#clip102)" d="M971.909 962.202 L971.909 1486.45 L992.598 1486.45 L992.598 962.202 L971.909 962.202 L971.909 962.202  Z" fill="#009af9" fill-rule="evenodd" fill-opacity="1"/>
<polyline clip-path="url(#clip102)" style="stroke:#000000; stroke-linecap:round; stroke-linejoin:round; stroke-width:4; stroke-opacity:1; fill:none" points="971.909,962.202 971.909,1486.45 992.598,1486.45 992.598,962.202 971.909,962.202 "/>
<path clip-path="url(#clip102)" d="M992.598 1046.28 L992.598 1486.45 L1013.29 1486.45 L1013.29 1046.28 L992.598 1046.28 L992.598 1046.28  Z" fill="#009af9" fill-rule="evenodd" fill-opacity="1"/>
<polyline clip-path="url(#clip102)" style="stroke:#000000; stroke-linecap:round; stroke-linejoin:round; stroke-width:4; stroke-opacity:1; fill:none" points="992.598,1046.28 992.598,1486.45 1013.29,1486.45 1013.29,1046.28 992.598,1046.28 "/>
<path clip-path="url(#clip102)" d="M1013.29 1197.12 L1013.29 1486.45 L1033.98 1486.45 L1033.98 1197.12 L1013.29 1197.12 L1013.29 1197.12  Z" fill="#009af9" fill-rule="evenodd" fill-opacity="1"/>
<polyline clip-path="url(#clip102)" style="stroke:#000000; stroke-linecap:round; stroke-linejoin:round; stroke-width:4; stroke-opacity:1; fill:none" points="1013.29,1197.12 1013.29,1486.45 1033.98,1486.45 1033.98,1197.12 1013.29,1197.12 "/>
<path clip-path="url(#clip102)" d="M1033.98 1187.23 L1033.98 1486.45 L1054.66 1486.45 L1054.66 1187.23 L1033.98 1187.23 L1033.98 1187.23  Z" fill="#009af9" fill-rule="evenodd" fill-opacity="1"/>
<polyline clip-path="url(#clip102)" style="stroke:#000000; stroke-linecap:round; stroke-linejoin:round; stroke-width:4; stroke-opacity:1; fill:none" points="1033.98,1187.23 1033.98,1486.45 1054.66,1486.45 1054.66,1187.23 1033.98,1187.23 "/>
<path clip-path="url(#clip102)" d="M1054.66 1261.42 L1054.66 1486.45 L1075.35 1486.45 L1075.35 1261.42 L1054.66 1261.42 L1054.66 1261.42  Z" fill="#009af9" fill-rule="evenodd" fill-opacity="1"/>
<polyline clip-path="url(#clip102)" style="stroke:#000000; stroke-linecap:round; stroke-linejoin:round; stroke-width:4; stroke-opacity:1; fill:none" points="1054.66,1261.42 1054.66,1486.45 1075.35,1486.45 1075.35,1261.42 1054.66,1261.42 "/>
<path clip-path="url(#clip102)" d="M1075.35 1315.82 L1075.35 1486.45 L1096.04 1486.45 L1096.04 1315.82 L1075.35 1315.82 L1075.35 1315.82  Z" fill="#009af9" fill-rule="evenodd" fill-opacity="1"/>
<polyline clip-path="url(#clip102)" style="stroke:#000000; stroke-linecap:round; stroke-linejoin:round; stroke-width:4; stroke-opacity:1; fill:none" points="1075.35,1315.82 1075.35,1486.45 1096.04,1486.45 1096.04,1315.82 1075.35,1315.82 "/>
<path clip-path="url(#clip102)" d="M1096.04 1350.44 L1096.04 1486.45 L1116.73 1486.45 L1116.73 1350.44 L1096.04 1350.44 L1096.04 1350.44  Z" fill="#009af9" fill-rule="evenodd" fill-opacity="1"/>
<polyline clip-path="url(#clip102)" style="stroke:#000000; stroke-linecap:round; stroke-linejoin:round; stroke-width:4; stroke-opacity:1; fill:none" points="1096.04,1350.44 1096.04,1486.45 1116.73,1486.45 1116.73,1350.44 1096.04,1350.44 "/>
<path clip-path="url(#clip102)" d="M1116.73 1372.7 L1116.73 1486.45 L1137.42 1486.45 L1137.42 1372.7 L1116.73 1372.7 L1116.73 1372.7  Z" fill="#009af9" fill-rule="evenodd" fill-opacity="1"/>
<polyline clip-path="url(#clip102)" style="stroke:#000000; stroke-linecap:round; stroke-linejoin:round; stroke-width:4; stroke-opacity:1; fill:none" points="1116.73,1372.7 1116.73,1486.45 1137.42,1486.45 1137.42,1372.7 1116.73,1372.7 "/>
<path clip-path="url(#clip102)" d="M1137.42 1422.15 L1137.42 1486.45 L1158.11 1486.45 L1158.11 1422.15 L1137.42 1422.15 L1137.42 1422.15  Z" fill="#009af9" fill-rule="evenodd" fill-opacity="1"/>
<polyline clip-path="url(#clip102)" style="stroke:#000000; stroke-linecap:round; stroke-linejoin:round; stroke-width:4; stroke-opacity:1; fill:none" points="1137.42,1422.15 1137.42,1486.45 1158.11,1486.45 1158.11,1422.15 1137.42,1422.15 "/>
<path clip-path="url(#clip102)" d="M1158.11 1434.52 L1158.11 1486.45 L1178.8 1486.45 L1178.8 1434.52 L1158.11 1434.52 L1158.11 1434.52  Z" fill="#009af9" fill-rule="evenodd" fill-opacity="1"/>
<polyline clip-path="url(#clip102)" style="stroke:#000000; stroke-linecap:round; stroke-linejoin:round; stroke-width:4; stroke-opacity:1; fill:none" points="1158.11,1434.52 1158.11,1486.45 1178.8,1486.45 1178.8,1434.52 1158.11,1434.52 "/>
<path clip-path="url(#clip102)" d="M1178.8 1461.72 L1178.8 1486.45 L1199.49 1486.45 L1199.49 1461.72 L1178.8 1461.72 L1178.8 1461.72  Z" fill="#009af9" fill-rule="evenodd" fill-opacity="1"/>
<polyline clip-path="url(#clip102)" style="stroke:#000000; stroke-linecap:round; stroke-linejoin:round; stroke-width:4; stroke-opacity:1; fill:none" points="1178.8,1461.72 1178.8,1486.45 1199.49,1486.45 1199.49,1461.72 1178.8,1461.72 "/>
<path clip-path="url(#clip102)" d="M1199.49 1439.46 L1199.49 1486.45 L1220.17 1486.45 L1220.17 1439.46 L1199.49 1439.46 L1199.49 1439.46  Z" fill="#009af9" fill-rule="evenodd" fill-opacity="1"/>
<polyline clip-path="url(#clip102)" style="stroke:#000000; stroke-linecap:round; stroke-linejoin:round; stroke-width:4; stroke-opacity:1; fill:none" points="1199.49,1439.46 1199.49,1486.45 1220.17,1486.45 1220.17,1439.46 1199.49,1439.46 "/>
<path clip-path="url(#clip102)" d="M1220.17 1456.77 L1220.17 1486.45 L1240.86 1486.45 L1240.86 1456.77 L1220.17 1456.77 L1220.17 1456.77  Z" fill="#009af9" fill-rule="evenodd" fill-opacity="1"/>
<polyline clip-path="url(#clip102)" style="stroke:#000000; stroke-linecap:round; stroke-linejoin:round; stroke-width:4; stroke-opacity:1; fill:none" points="1220.17,1456.77 1220.17,1486.45 1240.86,1486.45 1240.86,1456.77 1220.17,1456.77 "/>
<path clip-path="url(#clip102)" d="M1240.86 1469.14 L1240.86 1486.45 L1261.55 1486.45 L1261.55 1469.14 L1240.86 1469.14 L1240.86 1469.14  Z" fill="#009af9" fill-rule="evenodd" fill-opacity="1"/>
<polyline clip-path="url(#clip102)" style="stroke:#000000; stroke-linecap:round; stroke-linejoin:round; stroke-width:4; stroke-opacity:1; fill:none" points="1240.86,1469.14 1240.86,1486.45 1261.55,1486.45 1261.55,1469.14 1240.86,1469.14 "/>
<path clip-path="url(#clip102)" d="M1261.55 1471.61 L1261.55 1486.45 L1282.24 1486.45 L1282.24 1471.61 L1261.55 1471.61 L1261.55 1471.61  Z" fill="#009af9" fill-rule="evenodd" fill-opacity="1"/>
<polyline clip-path="url(#clip102)" style="stroke:#000000; stroke-linecap:round; stroke-linejoin:round; stroke-width:4; stroke-opacity:1; fill:none" points="1261.55,1471.61 1261.55,1486.45 1282.24,1486.45 1282.24,1471.61 1261.55,1471.61 "/>
<path clip-path="url(#clip102)" d="M1282.24 1476.56 L1282.24 1486.45 L1302.93 1486.45 L1302.93 1476.56 L1282.24 1476.56 L1282.24 1476.56  Z" fill="#009af9" fill-rule="evenodd" fill-opacity="1"/>
<polyline clip-path="url(#clip102)" style="stroke:#000000; stroke-linecap:round; stroke-linejoin:round; stroke-width:4; stroke-opacity:1; fill:none" points="1282.24,1476.56 1282.24,1486.45 1302.93,1486.45 1302.93,1476.56 1282.24,1476.56 "/>
<path clip-path="url(#clip102)" d="M1302.93 1483.98 L1302.93 1486.45 L1323.62 1486.45 L1323.62 1483.98 L1302.93 1483.98 L1302.93 1483.98  Z" fill="#009af9" fill-rule="evenodd" fill-opacity="1"/>
<polyline clip-path="url(#clip102)" style="stroke:#000000; stroke-linecap:round; stroke-linejoin:round; stroke-width:4; stroke-opacity:1; fill:none" points="1302.93,1483.98 1302.93,1486.45 1323.62,1486.45 1323.62,1483.98 1302.93,1483.98 "/>
<path clip-path="url(#clip102)" d="M1323.62 1481.5 L1323.62 1486.45 L1344.31 1486.45 L1344.31 1481.5 L1323.62 1481.5 L1323.62 1481.5  Z" fill="#009af9" fill-rule="evenodd" fill-opacity="1"/>
<polyline clip-path="url(#clip102)" style="stroke:#000000; stroke-linecap:round; stroke-linejoin:round; stroke-width:4; stroke-opacity:1; fill:none" points="1323.62,1481.5 1323.62,1486.45 1344.31,1486.45 1344.31,1481.5 1323.62,1481.5 "/>
<path clip-path="url(#clip102)" d="M1344.31 1483.98 L1344.31 1486.45 L1365 1486.45 L1365 1483.98 L1344.31 1483.98 L1344.31 1483.98  Z" fill="#009af9" fill-rule="evenodd" fill-opacity="1"/>
<polyline clip-path="url(#clip102)" style="stroke:#000000; stroke-linecap:round; stroke-linejoin:round; stroke-width:4; stroke-opacity:1; fill:none" points="1344.31,1483.98 1344.31,1486.45 1365,1486.45 1365,1483.98 1344.31,1483.98 "/>
<path clip-path="url(#clip102)" d="M1365 1486.45 L1365 1486.45 L1385.69 1486.45 L1385.69 1486.45 L1365 1486.45 L1365 1486.45  Z" fill="#009af9" fill-rule="evenodd" fill-opacity="1"/>
<polyline clip-path="url(#clip102)" style="stroke:#000000; stroke-linecap:round; stroke-linejoin:round; stroke-width:4; stroke-opacity:1; fill:none" points="1365,1486.45 1365,1486.45 1385.69,1486.45 1365,1486.45 "/>
<path clip-path="url(#clip102)" d="M1385.69 1486.45 L1385.69 1486.45 L1406.37 1486.45 L1406.37 1486.45 L1385.69 1486.45 L1385.69 1486.45  Z" fill="#009af9" fill-rule="evenodd" fill-opacity="1"/>
<polyline clip-path="url(#clip102)" style="stroke:#000000; stroke-linecap:round; stroke-linejoin:round; stroke-width:4; stroke-opacity:1; fill:none" points="1385.69,1486.45 1385.69,1486.45 1406.37,1486.45 1385.69,1486.45 "/>
<path clip-path="url(#clip102)" d="M1406.37 1483.98 L1406.37 1486.45 L1427.06 1486.45 L1427.06 1483.98 L1406.37 1483.98 L1406.37 1483.98  Z" fill="#009af9" fill-rule="evenodd" fill-opacity="1"/>
<polyline clip-path="url(#clip102)" style="stroke:#000000; stroke-linecap:round; stroke-linejoin:round; stroke-width:4; stroke-opacity:1; fill:none" points="1406.37,1483.98 1406.37,1486.45 1427.06,1486.45 1427.06,1483.98 1406.37,1483.98 "/>
<circle clip-path="url(#clip102)" style="fill:#009af9; stroke:none; fill-opacity:0" cx="278.835" cy="1483.98" r="2"/>
<circle clip-path="url(#clip102)" style="fill:#009af9; stroke:none; fill-opacity:0" cx="299.524" cy="1483.98" r="2"/>
<circle clip-path="url(#clip102)" style="fill:#009af9; stroke:none; fill-opacity:0" cx="320.213" cy="1476.56" r="2"/>
<circle clip-path="url(#clip102)" style="fill:#009af9; stroke:none; fill-opacity:0" cx="340.902" cy="1483.98" r="2"/>
<circle clip-path="url(#clip102)" style="fill:#009af9; stroke:none; fill-opacity:0" cx="361.591" cy="1471.61" r="2"/>
<circle clip-path="url(#clip102)" style="fill:#009af9; stroke:none; fill-opacity:0" cx="382.279" cy="1474.08" r="2"/>
<circle clip-path="url(#clip102)" style="fill:#009af9; stroke:none; fill-opacity:0" cx="402.968" cy="1451.83" r="2"/>
<circle clip-path="url(#clip102)" style="fill:#009af9; stroke:none; fill-opacity:0" cx="423.657" cy="1439.46" r="2"/>
<circle clip-path="url(#clip102)" style="fill:#009af9; stroke:none; fill-opacity:0" cx="444.346" cy="1402.37" r="2"/>
<circle clip-path="url(#clip102)" style="fill:#009af9; stroke:none; fill-opacity:0" cx="465.034" cy="1360.33" r="2"/>
<circle clip-path="url(#clip102)" style="fill:#009af9; stroke:none; fill-opacity:0" cx="485.723" cy="1347.97" r="2"/>
<circle clip-path="url(#clip102)" style="fill:#009af9; stroke:none; fill-opacity:0" cx="506.412" cy="1291.09" r="2"/>
<circle clip-path="url(#clip102)" style="fill:#009af9; stroke:none; fill-opacity:0" cx="527.101" cy="1221.85" r="2"/>
<circle clip-path="url(#clip102)" style="fill:#009af9; stroke:none; fill-opacity:0" cx="547.79" cy="1026.5" r="2"/>
<circle clip-path="url(#clip102)" style="fill:#009af9; stroke:none; fill-opacity:0" cx="568.478" cy="962.202" r="2"/>
<circle clip-path="url(#clip102)" style="fill:#009af9; stroke:none; fill-opacity:0" cx="589.167" cy="816.303" r="2"/>
<circle clip-path="url(#clip102)" style="fill:#009af9; stroke:none; fill-opacity:0" cx="609.856" cy="756.955" r="2"/>
<circle clip-path="url(#clip102)" style="fill:#009af9; stroke:none; fill-opacity:0" cx="630.545" cy="658.04" r="2"/>
<circle clip-path="url(#clip102)" style="fill:#009af9; stroke:none; fill-opacity:0" cx="651.233" cy="447.847" r="2"/>
<circle clip-path="url(#clip102)" style="fill:#009af9; stroke:none; fill-opacity:0" cx="671.922" cy="356.351" r="2"/>
<circle clip-path="url(#clip102)" style="fill:#009af9; stroke:none; fill-opacity:0" cx="692.611" cy="188.197" r="2"/>
<circle clip-path="url(#clip102)" style="fill:#009af9; stroke:none; fill-opacity:0" cx="713.3" cy="109.066" r="2"/>
<circle clip-path="url(#clip102)" style="fill:#009af9; stroke:none; fill-opacity:0" cx="733.989" cy="47.2441" r="2"/>
<circle clip-path="url(#clip102)" style="fill:#009af9; stroke:none; fill-opacity:0" cx="754.677" cy="116.484" r="2"/>
<circle clip-path="url(#clip102)" style="fill:#009af9; stroke:none; fill-opacity:0" cx="775.366" cy="173.36" r="2"/>
<circle clip-path="url(#clip102)" style="fill:#009af9; stroke:none; fill-opacity:0" cx="796.055" cy="94.2284" r="2"/>
<circle clip-path="url(#clip102)" style="fill:#009af9; stroke:none; fill-opacity:0" cx="816.744" cy="195.616" r="2"/>
<circle clip-path="url(#clip102)" style="fill:#009af9; stroke:none; fill-opacity:0" cx="837.432" cy="279.693" r="2"/>
<circle clip-path="url(#clip102)" style="fill:#009af9; stroke:none; fill-opacity:0" cx="858.121" cy="371.189" r="2"/>
<circle clip-path="url(#clip102)" style="fill:#009af9; stroke:none; fill-opacity:0" cx="878.81" cy="447.847" r="2"/>
<circle clip-path="url(#clip102)" style="fill:#009af9; stroke:none; fill-opacity:0" cx="899.499" cy="477.522" r="2"/>
<circle clip-path="url(#clip102)" style="fill:#009af9; stroke:none; fill-opacity:0" cx="920.188" cy="662.986" r="2"/>
<circle clip-path="url(#clip102)" style="fill:#009af9; stroke:none; fill-opacity:0" cx="940.876" cy="826.195" r="2"/>
<circle clip-path="url(#clip102)" style="fill:#009af9; stroke:none; fill-opacity:0" cx="961.565" cy="880.597" r="2"/>
<circle clip-path="url(#clip102)" style="fill:#009af9; stroke:none; fill-opacity:0" cx="982.254" cy="962.202" r="2"/>
<circle clip-path="url(#clip102)" style="fill:#009af9; stroke:none; fill-opacity:0" cx="1002.94" cy="1046.28" r="2"/>
<circle clip-path="url(#clip102)" style="fill:#009af9; stroke:none; fill-opacity:0" cx="1023.63" cy="1197.12" r="2"/>
<circle clip-path="url(#clip102)" style="fill:#009af9; stroke:none; fill-opacity:0" cx="1044.32" cy="1187.23" r="2"/>
<circle clip-path="url(#clip102)" style="fill:#009af9; stroke:none; fill-opacity:0" cx="1065.01" cy="1261.42" r="2"/>
<circle clip-path="url(#clip102)" style="fill:#009af9; stroke:none; fill-opacity:0" cx="1085.7" cy="1315.82" r="2"/>
<circle clip-path="url(#clip102)" style="fill:#009af9; stroke:none; fill-opacity:0" cx="1106.39" cy="1350.44" r="2"/>
<circle clip-path="url(#clip102)" style="fill:#009af9; stroke:none; fill-opacity:0" cx="1127.08" cy="1372.7" r="2"/>
<circle clip-path="url(#clip102)" style="fill:#009af9; stroke:none; fill-opacity:0" cx="1147.76" cy="1422.15" r="2"/>
<circle clip-path="url(#clip102)" style="fill:#009af9; stroke:none; fill-opacity:0" cx="1168.45" cy="1434.52" r="2"/>
<circle clip-path="url(#clip102)" style="fill:#009af9; stroke:none; fill-opacity:0" cx="1189.14" cy="1461.72" r="2"/>
<circle clip-path="url(#clip102)" style="fill:#009af9; stroke:none; fill-opacity:0" cx="1209.83" cy="1439.46" r="2"/>
<circle clip-path="url(#clip102)" style="fill:#009af9; stroke:none; fill-opacity:0" cx="1230.52" cy="1456.77" r="2"/>
<circle clip-path="url(#clip102)" style="fill:#009af9; stroke:none; fill-opacity:0" cx="1251.21" cy="1469.14" r="2"/>
<circle clip-path="url(#clip102)" style="fill:#009af9; stroke:none; fill-opacity:0" cx="1271.9" cy="1471.61" r="2"/>
<circle clip-path="url(#clip102)" style="fill:#009af9; stroke:none; fill-opacity:0" cx="1292.59" cy="1476.56" r="2"/>
<circle clip-path="url(#clip102)" style="fill:#009af9; stroke:none; fill-opacity:0" cx="1313.27" cy="1483.98" r="2"/>
<circle clip-path="url(#clip102)" style="fill:#009af9; stroke:none; fill-opacity:0" cx="1333.96" cy="1481.5" r="2"/>
<circle clip-path="url(#clip102)" style="fill:#009af9; stroke:none; fill-opacity:0" cx="1354.65" cy="1483.98" r="2"/>
<circle clip-path="url(#clip102)" style="fill:#009af9; stroke:none; fill-opacity:0" cx="1375.34" cy="1486.45" r="2"/>
<circle clip-path="url(#clip102)" style="fill:#009af9; stroke:none; fill-opacity:0" cx="1396.03" cy="1486.45" r="2"/>
<circle clip-path="url(#clip102)" style="fill:#009af9; stroke:none; fill-opacity:0" cx="1416.72" cy="1483.98" r="2"/>
<polyline clip-path="url(#clip102)" style="stroke:#ff0000; stroke-linecap:round; stroke-linejoin:round; stroke-width:4; stroke-opacity:1; fill:none" points="2291.04,2925.65 2291.04,-1391.96 "/>
</svg>
